<?xml version="1.0" standalone="no"?>
<!DOCTYPE svg PUBLIC "-//W3C//DTD SVG 20010904//EN"
 "http://www.w3.org/TR/2001/REC-SVG-20010904/DTD/svg10.dtd">
<svg version="1.0" xmlns="http://www.w3.org/2000/svg"
 width="300.000000pt" height="350.000000pt" viewBox="0 0 300.000000 300.000000"
 preserveAspectRatio="xMidYMid meet">
<metadata>
Created by potrace 1.10, written by Peter Selinger 2001-2011
</metadata>
<g transform="translate(0.000000,300.000000) scale(0.100000,-0.100000)"
fill="#ff8000ff" stroke="none">
<path d="M854 2750 c-73 -58 -406 -403 -419 -434 -21 -50 -14 -410 9 -453 9
-18 18 -33 19 -33 1 0 1 106 -1 237 l-4 236 219 219 218 218 455 0 455 0 48
-45 48 -45 170 0 171 0 164 -157 164 -158 0 -161 c0 -143 -2 -163 -18 -177
-10 -10 -21 -17 -25 -17 -3 0 -6 75 -6 167 l0 166 -143 144 -143 143 -170 0
-171 0 -56 50 -56 50 -434 0 -433 0 -203 -203 -202 -202 0 -197 c0 -165 -2
-197 -15 -202 -18 -6 -21 -40 -3 -34 6 2 20 16 31 30 16 22 19 46 21 206 l1
182 100 101 c258 262 276 279 304 279 94 2 144 2 204 1 65 -1 67 -2 57 -21
-16 -31 -52 -40 -148 -41 -48 0 -96 -5 -107 -11 -11 -6 -100 -91 -197 -188
l-178 -177 -1 -144 c0 -79 0 -172 1 -205 1 -66 4 -62 -95 -172 -16 -19 -33
-43 -37 -55 -3 -12 -6 -115 -7 -229 -1 -172 1 -208 13 -208 8 0 16 -7 20 -15
10 -26 44 -17 61 15 12 23 16 63 16 165 0 82 4 135 9 135 6 0 9 13 8 29 -1 16
-6 27 -10 25 -4 -3 -8 19 -8 49 0 49 3 57 45 103 44 48 44 50 45 124 2 113 6
127 44 167 32 34 36 44 36 93 l0 55 178 178 177 177 517 0 516 0 32 -40 c30
-38 34 -40 88 -40 51 1 55 2 38 15 -11 9 -30 12 -48 8 -35 -7 -68 19 -68 54
l0 23 -143 0 c-98 0 -147 4 -155 12 -9 9 -12 9 -12 -1 0 -9 -23 -12 -82 -11
-46 0 -176 1 -290 1 -114 0 -218 3 -230 8 -22 8 -22 8 -2 19 13 7 119 13 280
16 277 4 286 5 278 18 -3 4 -128 8 -278 8 l-273 0 -23 -25 c-22 -24 -29 -25
-134 -25 l-111 0 -173 -173 -172 -172 0 -76 0 -76 28 5 27 5 -32 -35 -33 -34
0 -113 0 -113 -47 -49 c-58 -60 -60 -75 -62 -341 -1 -151 -3 -178 -16 -178
-13 0 -15 33 -15 238 l0 238 60 59 60 59 0 211 0 210 183 183 183 183 108 -2
c104 -1 108 -1 135 25 l28 27 280 -3 279 -3 39 -32 40 -33 162 0 c106 0 164
-4 169 -11 3 -6 15 -9 25 -6 12 3 19 0 19 -9 0 -8 3 -14 8 -14 12 -1 92 -78
92 -89 0 -6 5 -11 11 -11 13 0 112 -100 119 -120 3 -8 6 -80 8 -160 3 -154 10
-175 49 -165 17 4 23 1 23 -12 1 -12 10 -3 25 22 24 38 25 47 24 185 0 105 -5
154 -15 176 -18 37 -273 292 -324 323 -32 19 -50 21 -192 21 l-157 0 -34 30
c-70 61 -50 59 -542 60 l-452 0 -39 -30z m196 -230 c0 -5 -76 -86 -170 -179
-93 -93 -171 -180 -174 -193 -18 -88 -16 -85 -32 -64 -10 14 -14 16 -14 5 0
-12 -2 -12 -10 1 -13 20 -9 80 6 104 7 10 84 90 170 177 141 143 160 159 190
159 19 0 34 -4 34 -10z"/>
<path d="M917 2312 l-167 -167 0 -61 c0 -56 -3 -63 -35 -94 l-35 -34 2 -90 2
-91 3 76 c4 71 6 78 43 123 22 27 41 60 42 75 3 45 4 55 11 76 4 12 78 92 166
178 l158 158 484 -3 485 -3 31 -35 c30 -33 35 -35 115 -41 90 -6 93 -5 83 10
-3 6 -38 11 -80 11 l-73 0 -32 40 -32 40 -501 0 -502 0 -168 -168z"/>
<path d="M2402 2162 c-7 -16 -12 -73 -12 -153 l0 -127 33 -33 c32 -34 32 -35
38 -154 l5 -120 2 131 c2 128 2 131 -24 155 -25 23 -25 25 -23 172 1 81 0 149
-2 152 -2 2 -10 -8 -17 -23z"/>
<path d="M2448 2033 c-3 -127 -3 -128 25 -159 l27 -32 0 -298 0 -299 -30 -44
-30 -44 -1 -221 c-1 -122 -3 -231 -4 -244 -1 -14 -34 -55 -79 -99 -42 -42 -76
-80 -76 -85 0 -6 41 27 90 73 l90 82 0 251 0 252 35 34 35 34 0 310 c0 171 -3
321 -6 333 -3 12 -12 19 -19 17 -23 -9 -29 18 -27 132 2 87 -1 114 -12 123
-13 11 -15 -5 -18 -116z"/>
<path d="M1606 2071 c-37 -5 -56 -15 -77 -39 -16 -18 -29 -39 -29 -47 0 -19
76 -103 203 -225 59 -57 107 -107 107 -112 0 -6 -181 -8 -443 -6 l-444 3 -41
-28 c-48 -34 -112 -113 -112 -139 0 -20 67 -97 114 -131 30 -22 38 -22 481
-27 l449 -5 -152 -150 c-140 -139 -152 -154 -152 -187 0 -28 7 -42 31 -62 28
-24 37 -26 127 -26 72 1 105 5 128 18 35 19 276 251 425 410 104 110 125 146
114 189 -4 18 -78 100 -200 223 -106 107 -214 219 -240 247 -26 29 -62 62 -80
73 -38 23 -132 33 -209 21z m430 -301 c186 -187 260 -268 262 -287 3 -23 -32
-62 -260 -290 l-263 -263 -105 0 c-114 0 -130 6 -130 49 0 13 3 21 7 17 8 -7
93 73 93 88 0 6 -21 -10 -47 -34 -43 -41 -43 -39 6 12 30 31 58 56 62 55 5 -1
259 240 259 247 0 1 -226 0 -502 -2 l-502 -3 -58 58 c-32 32 -58 60 -58 64 0
4 28 34 63 68 l62 61 495 -6 495 -6 -194 195 c-193 194 -195 196 -176 217 16
18 30 20 125 20 l107 0 259 -260z"/>
<path d="M896 1521 c-23 -24 -34 -41 -27 -45 6 -4 11 -4 11 1 0 11 53 70 63
71 16 1 21 12 6 12 -8 0 -32 -17 -53 -39z"/>
<path d="M2561 1900 c-1 -8 -1 -166 -1 -350 l0 -336 -35 -34 -35 -34 0 -246 0
-246 -95 -88 c-91 -84 -119 -119 -74 -96 11 7 38 28 60 47 66 60 43 23 -40
-64 -43 -46 -86 -83 -95 -83 -21 0 -20 8 2 34 15 18 14 18 -12 -2 -20 -15 -43
-22 -74 -22 -33 0 -52 -6 -69 -22 -19 -18 -26 -20 -32 -9 -7 11 -14 10 -35 -5
-31 -23 -33 -34 -4 -26 14 3 19 1 14 -6 -4 -7 4 -23 18 -37 23 -23 32 -25 125
-25 55 0 110 5 123 10 13 6 82 70 155 143 109 110 133 139 143 177 15 55 7
259 -12 292 -7 13 -15 48 -19 78 l-6 55 -2 -65 -1 -64 -20 20 c-17 17 -20 34
-22 129 -1 81 2 116 13 133 17 26 29 28 29 5 1 -10 7 0 15 22 21 57 21 655 0
700 -7 17 -14 23 -14 15z m-9 -1027 c16 -14 18 -33 18 -157 l0 -141 -145 -145
-144 -144 -111 -1 c-60 0 -110 4 -110 9 0 24 39 35 120 36 l85 0 127 127 128
128 0 152 c0 84 3 153 7 153 3 0 15 -7 25 -17z"/>
<path d="M604 1390 c0 -107 2 -151 3 -97 2 53 2 141 0 195 -1 53 -3 9 -3 -98z"/>
<path d="M458 913 l-28 -14 0 -137 c0 -114 3 -141 18 -163 23 -35 370 -382
403 -403 24 -15 78 -17 502 -22 544 -6 505 -11 592 86 l50 55 -58 -53 -59 -52
-491 0 -492 0 -218 217 -217 217 0 128 0 128 25 0 25 0 0 -122 0 -122 203
-198 202 -198 472 0 c441 0 472 -1 475 -17 3 -11 6 -6 9 13 3 18 1 31 -5 32
-6 0 -37 1 -69 2 -37 1 -57 6 -54 13 7 23 55 49 93 50 42 2 41 1 125 83 l55
55 79 0 c43 0 89 5 102 10 28 10 197 179 188 187 -3 3 -47 -35 -98 -86 l-92
-92 -90 0 -91 0 -69 -70 c-68 -68 -71 -70 -120 -70 -42 0 -56 -5 -75 -25 -13
-14 -31 -25 -41 -25 -9 0 -19 -6 -22 -12 -3 -10 -81 -13 -348 -13 -189 0 -361
2 -383 4 -31 3 -50 15 -103 67 -36 35 -70 64 -76 64 -6 0 -8 2 -5 5 5 5 -121
135 -131 135 -4 0 -15 12 -26 27 -11 15 -32 40 -47 55 -16 17 -28 40 -28 56
-2 150 -6 178 -25 200 -22 25 -21 25 -57 5z"/>
<path d="M2390 803 c-1 -48 -1 -49 -100 -140 l-100 -93 -83 0 c-93 0 -143 -19
-165 -63 -15 -31 -78 -87 -97 -87 -17 0 -19 12 -5 25 6 7 -52 8 -158 4 -92 -4
-275 -7 -407 -8 l-241 -1 -182 184 c-100 100 -182 181 -182 179 0 -21 306
-340 348 -362 16 -8 89 -13 235 -13 117 0 221 -4 232 -8 19 -7 19 -7 -3 -19
-15 -8 -97 -12 -263 -13 l-242 -1 -147 150 c-82 83 -163 161 -182 173 l-33 23
35 -38 c19 -21 100 -105 179 -187 l144 -148 252 0 c239 0 253 1 270 20 17 19
31 20 194 20 l177 0 74 75 74 75 96 0 96 0 97 99 97 98 0 52 c0 28 -2 51 -5
51 -3 0 -5 -21 -5 -47z"/>
<path d="M719 820 c-10 -7 28 -51 156 -180 l169 -170 386 1 c212 0 394 4 405
9 12 5 -148 9 -381 9 l-401 1 -134 137 c-74 76 -146 152 -160 170 -18 22 -30
29 -40 23z"/>
<path d="M580 710 c0 -4 11 -19 25 -34 14 -15 25 -29 25 -31 0 -3 74 -79 164
-169 l163 -164 261 -1 c254 -2 262 -1 291 20 26 19 39 21 110 17 60 -3 84 -1
92 9 18 21 -179 19 -209 -3 -19 -13 -62 -15 -285 -14 l-262 0 -187 189 c-104
104 -188 185 -188 181z"/>
</g>
</svg>
