<?xml version="1.0" standalone="no"?>
<!DOCTYPE svg PUBLIC "-//W3C//DTD SVG 20010904//EN"
 "http://www.w3.org/TR/2001/REC-SVG-20010904/DTD/svg10.dtd">
<svg version="1.0" xmlns="http://www.w3.org/2000/svg"
 width="300.000000pt" height="350.000000pt" viewBox="0 0 300.000000 350.000000"
 preserveAspectRatio="xMidYMid meet">
<metadata>
Created by potrace 1.10, written by Peter Selinger 2001-2011
</metadata>
<g transform="translate(0.000000,350.000000) scale(0.100000,-0.100000)"
fill="#ff8000ff" stroke="none">
<path d="M1212 2929 c-13 -5 -43 -25 -66 -44 l-43 -35 -127 0 c-102 0 -132 -3
-154 -17 -37 -23 -277 -259 -313 -307 l-29 -39 0 -287 c0 -239 2 -290 14 -300
27 -21 35 -73 41 -259 3 -102 7 -187 10 -189 3 -3 5 94 5 215 0 207 -1 221
-20 238 -19 17 -20 31 -20 293 l0 276 168 170 167 169 145 4 144 3 41 40 41
40 429 0 430 0 208 -210 208 -209 -3 -93 c-3 -79 -6 -93 -20 -96 -16 -3 -18 6
-18 84 l0 88 -197 198 -197 198 -411 0 -411 0 -44 -45 -44 -45 -144 0 -143 0
-154 -157 -154 -158 -1 -261 c0 -221 2 -263 15 -274 12 -10 15 -48 15 -224 0
-129 4 -205 9 -197 9 14 17 259 13 366 -1 28 -4 158 -7 290 -4 197 -2 234 8
206 15 -43 39 -60 61 -42 9 8 16 22 16 33 0 34 20 61 123 166 l102 102 125 0
125 0 50 49 c27 27 71 68 96 90 l46 41 314 0 314 0 178 -178 177 -177 0 -127
0 -127 45 -38 45 -37 0 -381 0 -381 -50 -56 -50 -56 0 -84 0 -83 -200 -200
-199 -199 -257 -1 c-197 0 -258 3 -261 13 -4 9 50 12 249 12 l253 0 198 198
197 197 0 91 0 90 45 44 45 44 0 366 0 366 -40 39 -40 39 0 126 0 125 -173
173 -172 172 -305 0 -306 0 -92 -90 -92 -90 -122 0 -123 0 -103 -102 c-110
-109 -134 -149 -30 -51 123 116 143 133 158 134 8 0 60 1 115 1 62 0 110 6
126 14 15 7 58 47 96 89 l69 77 299 -1 298 0 165 -165 c132 -131 163 -168 158
-182 -7 -17 -9 -15 -21 11 -7 17 -69 85 -138 153 -99 98 -132 125 -163 133
-44 10 -430 13 -468 3 -31 -7 -40 -29 -20 -49 18 -17 7 -17 282 -19 l213 -2
119 -125 c66 -68 120 -132 121 -141 1 -10 2 -27 3 -38 0 -10 9 -27 20 -37 18
-17 18 -17 7 4 -6 12 -11 39 -11 59 0 35 -10 47 -132 171 l-132 133 -243 2
c-156 2 -242 7 -241 13 2 6 95 11 250 11 l247 2 141 -144 140 -144 0 -53 1
-52 14 30 c15 34 16 30 19 -78 2 -76 3 -78 43 -120 l41 -42 6 -351 5 -351 -44
-49 c-31 -33 -45 -59 -46 -79 -1 -16 -3 -59 -4 -93 l-3 -64 -168 -170 c-93
-93 -180 -175 -194 -183 -18 -9 -94 -14 -264 -18 -201 -4 -241 -7 -254 -21
-15 -15 -15 -18 0 -44 l17 -27 198 3 c300 4 308 5 346 50 18 20 109 114 204
208 l172 172 2 83 c2 83 2 84 45 134 23 28 45 62 48 75 3 14 8 188 10 387 l5
361 -47 46 -47 46 -5 130 -5 130 -180 180 c-167 167 -178 180 -150 180 18 0
39 -9 53 -22 12 -13 60 -61 106 -108 46 -47 119 -118 160 -158 l76 -74 0 -61
c0 -78 16 -111 55 -115 44 -5 55 18 55 119 0 86 0 88 -39 136 -46 57 -383 392
-397 394 -45 7 -854 5 -872 -2z m118 -104 c0 -23 -114 -110 -130 -100 -6 3
-10 -2 -10 -12 0 -10 -14 -31 -31 -46 -30 -26 -36 -27 -135 -27 -76 0 -104 3
-104 12 0 7 -51 -38 -113 -100 -107 -107 -136 -130 -124 -98 4 10 1 13 -8 10
-10 -4 -15 -26 -17 -72 -2 -41 -8 -67 -15 -70 -10 -3 -13 14 -13 65 l1 68 127
132 127 133 132 1 132 2 52 53 c46 46 59 54 91 54 21 0 38 -2 38 -5z"/>
<path d="M825 2618 l-70 -73 73 70 c39 38 72 71 72 72 0 8 -11 -2 -75 -69z"/>
<path d="M1325 2245 c-16 -7 -102 -86 -190 -175 -88 -89 -189 -190 -223 -223
-126 -123 -135 -156 -62 -237 117 -129 436 -442 465 -457 23 -12 211 -18 238
-7 24 9 48 58 40 81 -3 10 -67 80 -142 156 -75 76 -138 140 -141 143 -17 18
66 23 375 24 477 2 471 1 502 33 24 23 27 34 29 118 3 89 2 92 -26 120 l-28
29 -254 1 c-139 1 -314 1 -388 0 -152 -1 -200 4 -200 23 0 7 53 64 118 127 64
63 125 125 134 137 26 33 28 64 6 92 -19 23 -27 25 -122 27 -64 1 -112 -3
-131 -12z m243 -48 c2 -11 -56 -77 -176 -200 l-180 -182 470 2 c259 0 478 -1
485 -4 11 -4 13 -29 11 -112 l-3 -106 -125 -8 c-69 -4 -288 -6 -488 -4 l-363
3 188 -188 c227 -228 227 -225 52 -220 l-114 3 -243 242 c-133 133 -245 252
-249 265 -5 19 31 60 243 277 l249 253 120 -1 c106 -2 120 -4 123 -20z"/>
<path d="M2443 1246 c-28 -24 -28 -24 -33 -179 l-5 -156 -165 -165 c-149 -148
-207 -192 -226 -174 -2 3 65 74 150 157 85 84 157 163 160 174 3 12 -65 -50
-153 -140 -88 -90 -166 -163 -175 -163 -19 0 -21 -16 -3 -23 6 -2 -33 -5 -88
-5 -303 -6 -563 -10 -582 -11 -19 -1 -23 -7 -23 -34 0 -22 8 -41 21 -53 20
-18 41 -19 318 -21 163 -1 333 1 378 4 89 6 104 14 186 96 20 20 37 34 37 31
0 -3 15 11 33 31 27 32 78 84 127 130 19 19 73 80 96 111 23 30 24 37 24 205
-1 172 -1 174 -25 192 -23 16 -25 16 -52 -7z m47 -178 l0 -183 -201 -197 -202
-198 -375 0 c-345 0 -376 1 -388 18 -7 9 -14 19 -14 22 0 3 171 4 381 3 l381
-3 184 182 184 181 0 154 c0 125 3 158 16 178 9 14 20 25 25 25 5 0 9 -82 9
-182z"/>
<path d="M490 1230 c-13 -8 -14 -39 -12 -197 2 -103 7 -194 12 -203 13 -25
286 -291 320 -313 28 -18 44 -19 158 -14 127 5 162 11 162 28 0 5 -63 7 -147
4 l-148 -6 -162 164 -163 163 0 189 c0 187 0 188 20 170 18 -17 20 -31 20
-174 l0 -156 157 -158 156 -158 114 7 c96 6 116 5 131 -9 16 -15 18 -15 18 3
0 10 -4 16 -8 14 -5 -3 -11 2 -14 11 -4 8 -11 15 -18 14 -6 -1 -56 -1 -110 0
l-100 1 -133 133 c-73 72 -133 136 -133 140 0 5 51 -42 113 -103 61 -62 122
-119 135 -127 15 -11 47 -15 105 -15 136 1 147 2 147 13 0 8 -36 10 -115 7
l-115 -3 -125 125 -125 125 0 162 c0 89 -3 164 -7 166 -5 3 -8 -27 -8 -66 -1
-105 -9 -217 -17 -217 -3 0 -8 56 -10 124 -2 105 -6 127 -22 145 -20 22 -51
27 -76 11z"/>
<path d="M660 1045 l0 -130 113 -113 112 -112 113 0 c77 0 111 3 107 11 -4 6
-42 10 -93 9 -48 -1 -95 -2 -104 -1 -9 1 -64 49 -122 108 l-106 107 -1 90 c-1
50 -1 99 0 108 1 10 -2 26 -8 35 -8 13 -10 -18 -11 -112z"/>
<path d="M2132 788 c-164 -165 -161 -162 -145 -157 23 8 313 299 297 299 -5 0
-73 -64 -152 -142z"/>
</g>
</svg>
