<?xml version="1.0" encoding="UTF-8" standalone="yes"?>
<svg version="1.2" width="4500" height="4500" baseProfile="tiny-ps" xmlns="http://www.w3.org/2000/svg">
  <title>OJASS Logo</title>
  <!-- <rect width="4500" height="4500" fill="black"/> -->
  <path d="M0 0 C4.84234034 0.01139326 9.68446059 0.00459179 14.52679348 -0.0068779 C49.6634213 -0.07731556 84.72216727 1.16149689 119.74902344 4.01074219 C120.78062592 4.09311127 121.81222839 4.17548035 122.87509155 4.26034546 C222.60419105 12.29109073 321.66103959 30.68609132 644.81152344 150.26074219 C646.3095752 150.99333252 646.3095752 150.99333252 647.83789062 151.74072266 C660.09956738 157.73928836 672.10096638 164.15094832 684.05126953 170.74609375 C686.74078846 172.22192742 689.43982818 173.67831441 692.14355469 175.12792969 C705.876225 182.50679041 719.29755149 190.36282321 732.66552734 198.37695312 C735.50542182 200.07745179 738.35041403 201.76888924 741.19824219 203.45605469 C779.68692341 226.30376723 816.9385824 251.50830509 852.81152344 278.26074219 C853.52856445 278.79473633 854.24560547 279.32873047 854.984375 279.87890625 C863.99025619 286.59071895 872.940551 293.37158274 881.81152344 300.26074219 C882.35454102 300.68145996 882.89755859 301.10217773 883.45703125 301.53564453 C896.32178946 311.51614646 908.8787724 321.87229548 921.27612305 332.42651367 C924.62531955 335.27383152 928.01719257 338.06073194 931.43652344 340.82324219 C936.19672397 344.69653491 940.73957127 348.76834211 945.25683594 352.92089844 C947.43850158 354.91909067 949.64163652 356.88223108 951.87402344 358.82324219 C960.07100731 365.95611456 968.08928244 373.29301403 976.07556152 380.66021729 C977.19015113 381.68784837 978.3057099 382.71442985 979.42248535 383.73968506 C991.80120199 395.12259942 1003.69286088 406.98678486 1015.5690918 418.88793945 C1018.34232361 421.66692443 1021.12010178 424.44131528 1023.8991785 427.2144537 C1026.0724519 429.38409467 1028.24331515 431.55613463 1030.41348076 433.72888374 C1031.43686349 434.75292539 1032.46096675 435.77624757 1033.48585701 436.79878044 C1038.60590742 441.90961018 1043.63883679 447.03523769 1048.31956482 452.55470276 C1049.91040197 454.37380878 1051.58641251 456.06913652 1053.31152344 457.76074219 C1056.30386719 460.70674433 1059.06476516 463.79057226 1061.80371094 466.97167969 C1063.75507529 469.1963869 1065.753208 471.37227484 1067.76586914 473.54150391 C1072.57389821 478.725483 1077.13002445 484.03524344 1081.56542969 489.54589844 C1083.89982933 492.36747714 1086.33142942 495.0666493 1088.81152344 497.76074219 C1093.22663697 502.56861122 1097.37806826 507.53483544 1101.47460938 512.61474609 C1103.58881074 515.21773104 1105.73223673 517.7964186 1107.87109375 520.37915039 C1114.14674989 527.96378215 1120.3159673 535.61824834 1126.35595703 543.39160156 C1127.93570433 545.42020696 1129.52366844 547.44221645 1131.11230469 549.46386719 C1139.56269202 560.24015807 1147.75559866 571.18700593 1155.81152344 582.26074219 C1156.64514404 583.40591309 1156.64514404 583.40591309 1157.49560547 584.57421875 C1160.7754583 589.08534008 1164.0394441 593.60753934 1167.28955078 598.14013672 C1168.2538973 599.48378667 1169.22013762 600.82608113 1170.18896484 602.16650391 C1177.32250269 612.04028435 1184.13980499 622.12673305 1190.91873169 632.24581909 C1191.92583346 633.74866562 1192.93434544 635.25056814 1193.94430542 636.75149536 C1195.37629809 638.88155527 1196.80181859 641.01580319 1198.22558594 643.15136719 C1198.8748127 644.11450081 1198.8748127 644.11450081 1199.53715515 645.09709167 C1201.71618772 648.38205758 1203.5171745 651.53096187 1204.81152344 655.26074219 C1206.54635134 654.49911042 1208.28117913 653.73747839 1210.01600647 652.97584534 C1211.59619468 652.28210544 1213.17638477 651.58836984 1214.75657654 650.89463806 C1219.29072341 648.90406019 1223.82483413 646.91340004 1228.35888672 644.92260742 C1237.62234962 640.85534235 1246.88619776 636.7889622 1256.15136719 632.72558594 C1274.45248678 624.69828632 1292.74258938 616.64671125 1311.01898193 608.56326294 C1324.95352307 602.400567 1338.89980541 596.265151 1352.85351562 590.14599609 C1366.01606782 584.3731685 1379.16697238 578.5744332 1392.31152344 572.76074219 C1406.34493323 566.55435711 1420.38521962 560.36401463 1434.43652344 554.19824219 C1435.70064056 553.64352737 1435.70064056 553.64352737 1436.99029541 553.0776062 C1443.77754504 550.09951072 1450.56539418 547.12278264 1457.35327148 544.14611816 C1463.2979723 541.53913879 1469.24242975 538.93160557 1475.18652344 536.32324219 C1476.45039886 535.76864822 1476.45039886 535.76864822 1477.73980713 535.20285034 C1490.93962437 529.4096725 1504.12807785 523.5910694 1517.31152344 517.76074219 C1531.34499435 511.55449461 1545.38521914 505.36401484 1559.43652344 499.19824219 C1560.70064056 498.64352737 1560.70064056 498.64352737 1561.99029541 498.0776062 C1568.77754504 495.09951072 1575.56539418 492.12278264 1582.35327148 489.14611816 C1588.2979723 486.53913879 1594.24242975 483.93160557 1600.18652344 481.32324219 C1601.02910706 480.95351288 1601.87169067 480.58378357 1602.73980713 480.20285034 C1615.93962437 474.4096725 1629.12807785 468.5910694 1642.31152344 462.76074219 C1656.34499435 456.55449461 1670.38521914 450.36401484 1684.43652344 444.19824219 C1685.70064056 443.64352737 1685.70064056 443.64352737 1686.99029541 443.0776062 C1693.77754504 440.09951072 1700.56539418 437.12278264 1707.35327148 434.14611816 C1712.45015205 431.91094049 1717.54678684 429.67520379 1722.64318848 427.43893433 C1725.16617157 426.33217 1727.68952112 425.2262443 1730.21289062 424.12036133 C1739.43519556 420.07609174 1748.64469496 416.00435814 1757.84277344 411.90527344 C1760.82273994 410.57964489 1763.80286434 409.25437189 1766.78302002 407.9291687 C1768.70804933 407.07162401 1770.6321747 406.21204705 1772.55535889 405.35037231 C1775.21934317 404.15678865 1777.88619601 402.96984693 1780.55371094 401.78417969 C1781.74595276 401.24655754 1781.74595276 401.24655754 1782.96228027 400.69807434 C1788.47031886 398.26074219 1788.47031886 398.26074219 1791.81152344 398.26074219 C1792.30652344 400.73574219 1792.30652344 400.73574219 1792.81152344 403.26074219 C1781.50092647 410.70988502 1770.18281328 418.12177083 1758.59106445 425.12744141 C1749.79908426 430.45253392 1741.15871819 436.01484885 1732.49707031 441.54833984 C1728.38053118 444.17319489 1724.25312613 446.78070992 1720.12402344 449.38574219 C1719.34978027 449.87437744 1718.57553711 450.3630127 1717.77783203 450.86645508 C1714.68489776 452.81806489 1711.59146115 454.76887771 1708.49804688 456.71972656 C1699.25732816 462.5481883 1690.02645783 468.3915823 1680.81152344 474.26074219 C1671.60103958 480.12706745 1662.37453341 485.96747236 1653.13818359 491.79296875 C1649.19492099 494.28057576 1645.25331576 496.77080633 1641.31152344 499.26074219 C1639.72819784 500.26075443 1638.14486451 501.26075444 1636.56152344 502.26074219 C1635.38589844 503.00324219 1635.38589844 503.00324219 1634.18652344 503.76074219 C1551.06152345 556.26074218 1551.06152345 556.26074218 1548.68725586 557.76025391 C1547.10145019 558.76183254 1545.51567552 559.76346026 1543.92993164 560.76513672 C1540.00967587 563.24138403 1536.08891236 565.7168192 1532.16699219 568.19042969 C1523.70387929 573.52957474 1515.25153596 578.88514418 1506.81152344 584.26074219 C1497.60103958 590.12706745 1488.37453341 595.96747236 1479.13818359 601.79296875 C1475.19492099 604.28057576 1471.25331576 606.77080633 1467.31152344 609.26074219 C1465.72819784 610.26075443 1464.14486451 611.26075444 1462.56152344 612.26074219 C1461.38589844 613.00324219 1461.38589844 613.00324219 1460.18652344 613.76074219 C1396.06152344 654.26074218 1396.06152344 654.26074218 1393.68725586 655.76025391 C1392.10145019 656.76183254 1390.51567552 657.76346026 1388.92993164 658.76513672 C1385.00967587 661.24138403 1381.08891236 663.7168192 1377.16699219 666.19042969 C1368.70387929 671.52957474 1360.25153596 676.88514418 1351.81152344 682.26074219 C1342.60103958 688.12706745 1333.37453341 693.96747236 1324.13818359 699.79296875 C1320.19492099 702.28057576 1316.25331576 704.77080633 1312.31152344 707.26074219 C1310.72819784 708.26075443 1309.14486451 709.26075444 1307.56152344 710.26074219 C1306.38589844 711.00324219 1306.38589844 711.00324219 1305.18652344 711.76074219 C1203.06152342 776.2607422 1203.06152342 776.2607422 1200.68725586 777.76025391 C1199.10145019 778.76183254 1197.51567552 779.76346026 1195.92993164 780.76513672 C1192.00967587 783.24138403 1188.08891236 785.7168192 1184.16699219 788.19042969 C1175.70387929 793.52957474 1167.25153596 798.88514418 1158.81152344 804.26074219 C1149.60103958 810.12706745 1140.37453341 815.96747236 1131.13818359 821.79296875 C1127.19492099 824.28057576 1123.25331576 826.77080633 1119.31152344 829.26074219 C1117.72819784 830.26075443 1116.14486451 831.26075444 1114.56152344 832.26074219 C1113.38589844 833.00324219 1113.38589844 833.00324219 1112.18652344 833.76074219 C1029.06152342 886.2607422 1029.06152342 886.2607422 1026.68725586 887.76025391 C1025.10145019 888.76183254 1023.51567552 889.76346026 1021.92993164 890.76513672 C1018.00967587 893.24138403 1014.08891236 895.7168192 1010.16699219 898.19042969 C1001.70387929 903.52957474 993.25153596 908.88514418 984.81152344 914.26074219 C975.60103958 920.12706745 966.37453341 925.96747236 957.13818359 931.79296875 C953.19492099 934.28057576 949.25331576 936.77080633 945.31152344 939.26074219 C943.72819784 940.26075443 942.14486451 941.26075444 940.56152344 942.26074219 C939.38589844 943.00324219 939.38589844 943.00324219 938.18652344 943.76074219 C855.06152342 996.2607422 855.06152342 996.2607422 852.68725586 997.76025391 C851.10145019 998.76183254 849.51567552 999.76346026 847.92993164 1000.76513672 C844.00967587 1003.24138403 840.08891236 1005.7168192 836.16699219 1008.19042969 C827.70387929 1013.52957474 819.25153596 1018.88514418 810.81152344 1024.26074219 C801.60103958 1030.12706745 792.37453341 1035.96747236 783.13818359 1041.79296875 C779.19492099 1044.28057576 775.25331576 1046.77080633 771.31152344 1049.26074219 C769.72819784 1050.26075443 768.14486451 1051.26075444 766.56152344 1052.26074219 C765.77777344 1052.75574219 764.99402344 1053.25074219 764.18652344 1053.76074219 C681.06152344 1106.26074219 681.06152344 1106.26074219 678.68725586 1107.76025391 C677.10145019 1108.76183254 675.51567552 1109.76346026 673.92993164 1110.76513672 C670.00967587 1113.24138403 666.08891236 1115.7168192 662.16699219 1118.19042969 C653.70387929 1123.52957474 645.25153596 1128.88514418 636.81152344 1134.26074219 C627.60103958 1140.12706745 618.37453341 1145.96747236 609.13818359 1151.79296875 C605.19492099 1154.28057576 601.25331576 1156.77080633 597.31152344 1159.26074219 C595.72819784 1160.26075443 594.14486451 1161.26075444 592.56152344 1162.26074219 C591.77777344 1162.75574219 590.99402344 1163.25074219 590.18652344 1163.76074219 C507.06152342 1216.2607422 507.06152342 1216.2607422 504.68725586 1217.76025391 C503.10145019 1218.76183254 501.51567552 1219.76346026 499.92993164 1220.76513672 C496.00967587 1223.24138403 492.08891236 1225.7168192 488.16699219 1228.19042969 C479.70387929 1233.52957474 471.25153596 1238.88514418 462.81152344 1244.26074219 C453.60103958 1250.12706745 444.37453341 1255.96747236 435.13818359 1261.79296875 C431.19492099 1264.28057576 427.25331576 1266.77080633 423.31152344 1269.26074219 C421.72819784 1270.26075443 420.14486451 1271.26075444 418.56152344 1272.26074219 C417.77777344 1272.75574219 416.99402344 1273.25074219 416.18652344 1273.76074219 C333.06152342 1326.2607422 333.06152342 1326.2607422 330.68725586 1327.76025391 C329.10145019 1328.76183254 327.51567552 1329.76346026 325.92993164 1330.76513672 C322.00967587 1333.24138403 318.08891236 1335.7168192 314.16699219 1338.19042969 C305.70387929 1343.52957474 297.25153596 1348.88514418 288.81152344 1354.26074219 C279.60103958 1360.12706745 270.37453341 1365.96747236 261.13818359 1371.79296875 C257.9878035 1373.78038587 254.83846712 1375.76945236 251.68945312 1377.7590332 C250.11636511 1378.75246897 248.54280452 1379.74515687 246.96875 1380.73706055 C242.81294346 1383.35711945 238.66738329 1385.99186435 234.53417969 1388.64746094 C233.67050781 1389.19982422 232.80683594 1389.7521875 231.91699219 1390.32128906 C230.25918127 1391.38193153 228.60408799 1392.44683748 226.95214844 1393.51660156 C225.83259766 1394.23106445 225.83259766 1394.23106445 224.69042969 1394.95996094 C224.03631104 1395.38108154 223.38219238 1395.80220215 222.70825195 1396.23608398 C220.62031084 1397.36403981 219.1871391 1398.05827017 216.81152344 1398.26074219 C214.44335938 1397.14355469 214.44335938 1397.14355469 211.79589844 1395.38574219 C210.80452881 1394.73790771 209.81315918 1394.09007324 208.79174805 1393.42260742 C207.72577393 1392.70919189 206.6597998 1391.99577637 205.56152344 1391.26074219 C204.43954529 1390.52364139 203.31656316 1389.78806674 202.19262695 1389.05395508 C200.4545741 1387.91865553 198.71708401 1386.78260371 196.98243713 1385.6421051 C191.294056 1381.9037824 185.53052232 1378.29067168 179.74902344 1374.69824219 C177.75937425 1373.45876456 175.76979106 1372.21918099 173.78027344 1370.97949219 C172.79671875 1370.3671875 171.81316406 1369.75488281 170.79980469 1369.12402344 C167.79018284 1367.2474357 164.78462728 1365.36450074 161.78027344 1363.47949219 C149.20258361 1355.59082213 136.56601166 1347.80759223 123.86767578 1340.11474609 C120.66513621 1338.1719369 117.46652281 1336.22278496 114.26855469 1334.27246094 C97.72753851 1324.1925943 81.10062611 1314.26307162 64.42871094 1304.40136719 C61.22095747 1302.50372777 58.01586493 1300.6016385 54.81152344 1298.69824219 C44.12522944 1292.35683057 33.38817785 1286.10817632 22.6159668 1279.91381836 C17.34735494 1276.88313211 12.08567182 1273.84239997 6.84667969 1270.76074219 C-5.16084234 1263.69867242 -17.26518929 1256.85098685 -29.47851562 1250.15380859 C-36.93787712 1246.06251113 -44.35994726 1241.91201436 -51.75097656 1237.69824219 C-61.36284201 1232.23000778 -71.08664785 1226.98176502 -80.84570312 1221.78271484 C-88.08901397 1217.92389544 -95.30664816 1214.02262192 -102.50097656 1210.07324219 C-112.75872503 1204.45205616 -123.12189052 1199.04354379 -133.50439453 1193.65722656 C-136.68974892 1191.99993831 -139.86706699 1190.32784884 -143.04205322 1188.65080261 C-166.93656299 1176.03700514 -190.9910067 1163.76523534 -215.15795898 1151.68334961 C-218.46957267 1150.02758347 -221.77975042 1148.36900066 -225.08862305 1146.70776367 C-244.36384775 1137.0311687 -263.69381221 1127.56332184 -283.30618286 1118.58700562 C-287.39810497 1116.70414175 -291.46753235 1114.77576036 -295.53222656 1112.83496094 C-296.89296599 1112.18623937 -298.25372409 1111.53755696 -299.61450195 1110.88891602 C-300.27660675 1110.57322662 -300.93871155 1110.25753723 -301.62088013 1109.93228149 C-320.32692452 1101.02944019 -339.20406039 1092.55088217 -358.18847656 1084.26074219 C-359.1193811 1083.85362 -360.05028564 1083.4464978 -361.00939941 1083.02703857 C-419.91260842 1057.27109165 -479.35954806 1033.11570317 -540.18847656 1012.26074219 C-541.22992828 1011.90263458 -541.22992828 1011.90263458 -542.29241943 1011.53729248 C-622.67144284 983.91123829 -714.50055161 952.81507949 -843.73925781 972.47949219 C-848.27422346 974.85749098 -852.04522541 977.62038591 -855.77832031 981.12402344 C-857.18847656 982.26074219 -857.18847656 982.26074219 -859.18847656 982.26074219 C-859.45917969 982.83695313 -859.72988281 983.41316406 -860.00878906 984.00683594 C-861.19874767 986.28036612 -862.56325375 988.24391782 -864.06347656 990.32324219 C-873.34322064 1004.07269185 -874.01028878 1021.26527155 -871.1640625 1037.18994141 C-861.58467875 1083.9361539 -831.77885192 1124.24986199 -803.18847656 1161.26074219 C-802.66334473 1161.94330078 -802.13821289 1162.62585937 -801.59716797 1163.32910156 C-796.09923271 1170.46735589 -790.42609897 1177.41402103 -784.52514648 1184.22338867 C-781.52828143 1187.68220761 -778.61239167 1191.18789664 -775.75097656 1194.76074219 C-771.69902243 1199.75741422 -767.37995086 1204.46239155 -762.96801758 1209.13964844 C-760.16816179 1212.10989233 -757.42487786 1215.11318761 -754.74707031 1218.19433594 C-751.2113849 1222.25959323 -747.56609443 1226.21065857 -743.87597656 1230.13574219 C-743.22371094 1230.83119141 -742.57144531 1231.52664063 -741.89941406 1232.24316406 C-737.53502242 1236.87871613 -733.10033962 1241.4187882 -728.53222656 1245.85449219 C-726.6407912 1247.79636583 -724.88303184 1249.76290577 -723.12207031 1251.81933594 C-718.73429448 1256.87381811 -714.01308376 1261.58636703 -709.27319336 1266.30639648 C-707.75355988 1267.82066799 -706.23935139 1269.34021649 -704.72558594 1270.86035156 C-699.97632632 1275.61252239 -695.16979443 1280.23290516 -690.06323242 1284.60424805 C-685.89812887 1288.28444437 -682.07841106 1292.33389491 -678.18847656 1296.29980469 C-674.26387836 1300.27039428 -670.24801697 1304.0462108 -665.99902344 1307.66894531 C-664.14767461 1309.29661445 -662.41364221 1311.00062271 -660.68847656 1312.76074219 C-657.78848303 1315.70614949 -654.75221225 1318.41537928 -651.62207031 1321.11230469 C-648.42252503 1323.93694338 -645.30794792 1326.84824802 -642.18847656 1329.76074219 C-637.88313771 1333.77679397 -633.55879985 1337.75203464 -629.09863281 1341.59667969 C-626.82643146 1343.57614345 -624.60387784 1345.60657389 -622.37597656 1347.63574219 C-618.93469451 1350.7460307 -615.42526358 1353.72552531 -611.81347656 1356.63574219 C-607.26147349 1360.31581227 -602.95595408 1364.18597103 -598.67382812 1368.16992188 C-594.53966428 1371.99368895 -590.22349906 1375.54916247 -585.83691406 1379.08105469 C-583.21572537 1381.23831617 -580.69693375 1383.47385219 -578.18847656 1385.76074219 C-573.94680631 1389.62166409 -569.5681373 1393.26623922 -565.11035156 1396.87402344 C-561.91436624 1399.48464781 -558.76779473 1402.14798517 -555.62597656 1404.82324219 C-551.02186607 1408.73744422 -546.36079131 1412.56335308 -541.62597656 1416.31933594 C-539.08734714 1418.34128918 -536.57314326 1420.39046488 -534.06347656 1422.44824219 C-522.75418698 1431.71579825 -511.4129912 1440.93167677 -499.88867188 1449.93115234 C-497.63737769 1451.69171353 -495.39229475 1453.46010466 -493.14697266 1455.22827148 C-485.73851333 1461.06039529 -478.29867963 1466.85184161 -470.85253906 1472.63574219 C-467.71942476 1475.0695359 -464.58942772 1477.50725592 -461.46191406 1479.94824219 C-454.20530301 1485.60929366 -446.93577239 1491.2426991 -439.55175781 1496.73730469 C-436.82473924 1498.77381997 -434.12048552 1500.83899768 -431.41894531 1502.90917969 C-421.59533584 1510.43566278 -411.70773841 1517.84018994 -401.64941406 1525.04980469 C-396.96429524 1528.41109302 -392.32473067 1531.83250951 -387.68847656 1535.26074219 C-379.31094151 1541.4500832 -370.88039275 1547.56262038 -362.42675781 1553.64746094 C-360.16781449 1555.27563474 -357.91204995 1556.90811844 -355.65722656 1558.54199219 C-346.24279228 1565.36157809 -336.78025847 1572.10778626 -327.27099609 1578.79443359 C-325.22950659 1580.23185281 -323.19088985 1581.67324169 -321.15332031 1583.11621094 C-301.96988733 1596.69813681 -282.65179216 1610.08313503 -263.18847656 1623.26074219 C-262.41735535 1623.78291321 -261.64623413 1624.30508423 -260.85174561 1624.84307861 C-255.31933745 1628.58867794 -249.78466892 1632.33091673 -244.24816895 1636.07046509 C-242.36217427 1637.34452748 -240.47650297 1638.61906872 -238.59118652 1639.89413452 C-235.88908542 1641.72116649 -233.18564106 1643.54618713 -230.48144531 1645.37011719 C-229.6151651 1645.95501419 -228.74888489 1646.53991119 -227.85635376 1647.14253235 C-223.62815169 1649.98703307 -219.38122778 1652.79286426 -215.08154297 1655.52832031 C-214.28452469 1656.03606995 -213.48750641 1656.54381958 -212.66633606 1657.06695557 C-211.16654391 1658.01775474 -209.66271478 1658.96222494 -208.15434265 1659.89935303 C-206.46536982 1660.96836608 -204.82111954 1662.10753144 -203.18847656 1663.26074219 C-203.18847656 1663.92074219 -203.18847656 1664.58074219 -203.18847656 1665.26074219 C-204.63110352 1666.39892578 -204.63110352 1666.39892578 -206.67675781 1667.65917969 C-207.81564453 1668.36880859 -207.81564453 1668.36880859 -208.97753906 1669.09277344 C-209.81027344 1669.60195312 -210.64300781 1670.11113281 -211.50097656 1670.63574219 C-213.2576037 1671.7267001 -215.01411088 1672.81785119 -216.77050781 1673.90917969 C-217.67365723 1674.46702148 -218.57680664 1675.02486328 -219.50732422 1675.59960938 C-223.5850402 1678.12599615 -227.63624265 1680.69376221 -231.68847656 1683.26074219 C-233.27556107 1684.26359181 -234.86280117 1685.26619524 -236.45019531 1686.26855469 C-237.23442871 1686.76387695 -238.01866211 1687.25919922 -238.82666016 1687.76953125 C-241.16169012 1689.24382968 -243.49727279 1690.71724859 -245.83300781 1692.19042969 C-254.29612071 1697.52957474 -262.74846404 1702.88514418 -271.18847656 1708.26074219 C-280.39896042 1714.12706745 -289.62546659 1719.96747236 -298.86181641 1725.79296875 C-302.80507901 1728.28057576 -306.74668424 1730.77080633 -310.68847656 1733.26074219 C-312.27180216 1734.26075443 -313.85513549 1735.26075444 -315.43847656 1736.26074219 C-316.22222656 1736.75574219 -317.00597656 1737.25074219 -317.81347656 1737.76074219 C-381.93847656 1778.26074218 -381.93847656 1778.26074218 -384.31274414 1779.76025391 C-385.89854981 1780.76183254 -387.48432448 1781.76346026 -389.07006836 1782.76513672 C-392.99032413 1785.24138403 -396.91108764 1787.7168192 -400.83300781 1790.19042969 C-409.29612071 1795.52957474 -417.74846404 1800.88514418 -426.18847656 1806.26074219 C-435.39896042 1812.12706745 -444.62546659 1817.96747236 -453.86181641 1823.79296875 C-457.80507901 1826.28057576 -461.74668424 1828.77080633 -465.68847656 1831.26074219 C-467.27180216 1832.26075443 -468.85513549 1833.26075444 -470.43847656 1834.26074219 C-471.22222656 1834.75574219 -472.00597656 1835.25074219 -472.81347656 1835.76074219 C-555.93847658 1888.2607422 -555.93847658 1888.2607422 -558.31274414 1889.76025391 C-559.89854981 1890.76183254 -561.48432448 1891.76346026 -563.07006836 1892.76513672 C-566.99032413 1895.24138403 -570.91108764 1897.7168192 -574.83300781 1900.19042969 C-583.29612071 1905.52957474 -591.74846404 1910.88514418 -600.18847656 1916.26074219 C-609.39896042 1922.12706745 -618.62546659 1927.96747236 -627.86181641 1933.79296875 C-631.80507901 1936.28057576 -635.74668424 1938.77080633 -639.68847656 1941.26074219 C-641.27180216 1942.26075443 -642.85513549 1943.26075444 -644.43847656 1944.26074219 C-645.22222656 1944.75574219 -646.00597656 1945.25074219 -646.81347656 1945.76074219 C-710.93847654 1986.26074217 -710.93847654 1986.26074217 -713.31274414 1987.76025391 C-714.89854981 1988.76183254 -716.48432448 1989.76346026 -718.07006836 1990.76513672 C-721.99032413 1993.24138403 -725.91108764 1995.7168192 -729.83300781 1998.19042969 C-738.29612071 2003.52957474 -746.74846404 2008.88514418 -755.18847656 2014.26074219 C-764.39896042 2020.12706745 -773.62546659 2025.96747236 -782.86181641 2031.79296875 C-786.80507901 2034.28057576 -790.74668424 2036.77080633 -794.68847656 2039.26074219 C-796.27180216 2040.26075443 -797.85513549 2041.26075444 -799.43847656 2042.26074219 C-800.22222656 2042.75574219 -801.00597656 2043.25074219 -801.81347656 2043.76074219 C-884.9384766 2096.26074221 -884.9384766 2096.26074221 -887.31274414 2097.76025391 C-888.89854981 2098.76183254 -890.48432448 2099.76346026 -892.07006836 2100.76513672 C-895.99032413 2103.24138403 -899.91108764 2105.7168192 -903.83300781 2108.19042969 C-912.29612071 2113.52957474 -920.74846404 2118.88514418 -929.18847656 2124.26074219 C-938.39896042 2130.12706745 -947.62546659 2135.96747236 -956.86181641 2141.79296875 C-960.80507901 2144.28057576 -964.74668424 2146.77080633 -968.68847656 2149.26074219 C-970.27180216 2150.26075443 -971.85513549 2151.26075444 -973.43847656 2152.26074219 C-974.22222656 2152.75574219 -975.00597656 2153.25074219 -975.81347656 2153.76074219 C-1039.93847657 2194.2607422 -1039.93847657 2194.2607422 -1042.31274414 2195.76025391 C-1043.89854981 2196.76183254 -1045.48432448 2197.76346026 -1047.07006836 2198.76513672 C-1050.99032413 2201.24138403 -1054.91108764 2203.7168192 -1058.83300781 2206.19042969 C-1067.29612071 2211.52957474 -1075.74846404 2216.88514418 -1084.18847656 2222.26074219 C-1093.39896042 2228.12706745 -1102.62546659 2233.96747236 -1111.86181641 2239.79296875 C-1115.80507901 2242.28057576 -1119.74668424 2244.77080633 -1123.68847656 2247.26074219 C-1125.27180216 2248.26075443 -1126.85513549 2249.26075444 -1128.43847656 2250.26074219 C-1129.22222656 2250.75574219 -1130.00597656 2251.25074219 -1130.81347656 2251.76074219 C-1194.93847653 2292.26074216 -1194.93847653 2292.26074216 -1197.31274414 2293.76025391 C-1198.89854981 2294.76183254 -1200.48432448 2295.76346026 -1202.07006836 2296.76513672 C-1205.99032413 2299.24138403 -1209.91108764 2301.7168192 -1213.83300781 2304.19042969 C-1222.29612071 2309.52957474 -1230.74846404 2314.88514418 -1239.18847656 2320.26074219 C-1248.39896042 2326.12706745 -1257.62546659 2331.96747236 -1266.86181641 2337.79296875 C-1270.80507901 2340.28057576 -1274.74668424 2342.77080633 -1278.68847656 2345.26074219 C-1280.27180216 2346.26075443 -1281.85513549 2347.26075444 -1283.43847656 2348.26074219 C-1284.61410156 2349.00324219 -1284.61410156 2349.00324219 -1285.81347656 2349.76074219 C-1368.9384766 2402.26074221 -1368.9384766 2402.26074221 -1371.31274414 2403.76025391 C-1372.89854981 2404.76183254 -1374.48432448 2405.76346026 -1376.07006836 2406.76513672 C-1379.99032413 2409.24138403 -1383.91108764 2411.7168192 -1387.83300781 2414.19042969 C-1396.29612071 2419.52957474 -1404.74846404 2424.88514418 -1413.18847656 2430.26074219 C-1422.39896042 2436.12706745 -1431.62546659 2441.96747236 -1440.86181641 2447.79296875 C-1444.80507901 2450.28057576 -1448.74668424 2452.77080633 -1452.68847656 2455.26074219 C-1454.27180216 2456.26075443 -1455.85513549 2457.26075444 -1457.43847656 2458.26074219 C-1458.61410156 2459.00324219 -1458.61410156 2459.00324219 -1459.81347656 2459.76074219 C-1523.93847655 2500.26074218 -1523.93847655 2500.26074218 -1526.31274414 2501.76025391 C-1527.89854981 2502.76183254 -1529.48432448 2503.76346026 -1531.07006836 2504.76513672 C-1534.99032413 2507.24138403 -1538.91108764 2509.7168192 -1542.83300781 2512.19042969 C-1551.29612071 2517.52957474 -1559.74846404 2522.88514418 -1568.18847656 2528.26074219 C-1577.39896042 2534.12706745 -1586.62546659 2539.96747236 -1595.86181641 2545.79296875 C-1599.80507901 2548.28057576 -1603.74668424 2550.77080633 -1607.68847656 2553.26074219 C-1609.27180216 2554.26075443 -1610.85513549 2555.26075444 -1612.43847656 2556.26074219 C-1613.61410156 2557.00324219 -1613.61410156 2557.00324219 -1614.81347656 2557.76074219 C-1621.93847658 2562.2607422 -1621.93847658 2562.2607422 -1624.31665039 2563.76269531 C-1625.88946626 2564.75608679 -1627.46222084 2565.74957532 -1629.03491211 2566.74316406 C-1633.15364807 2569.34510082 -1637.27364491 2571.94501135 -1641.39550781 2574.54199219 C-1642.25015625 2575.08082031 -1643.10480469 2575.61964844 -1643.98535156 2576.17480469 C-1645.61386207 2577.20147435 -1647.24274425 2578.2275548 -1648.87207031 2579.25292969 C-1652.15355178 2581.32243542 -1655.41164228 2583.40317731 -1658.60644531 2585.60449219 C-1661.18847656 2587.26074219 -1661.18847656 2587.26074219 -1663.18847656 2587.26074219 C-1661.79124547 2583.56260863 -1660.12282961 2580.16478221 -1658.20410156 2576.70996094 C-1657.60597656 2575.63166016 -1657.00785156 2574.55335938 -1656.39160156 2573.44238281 C-1655.74078368 2572.27754421 -1655.08973596 2571.112834 -1654.43847656 2569.94824219 C-1654.10589844 2569.35116455 -1653.77332031 2568.75408691 -1653.43066406 2568.13891602 C-1648.22749033 2558.79877233 -1642.88515048 2549.54686861 -1637.46533203 2540.33056641 C-1632.38718114 2531.66817415 -1627.50899508 2522.90134787 -1622.65112305 2514.11401367 C-1617.45673676 2504.72257946 -1612.1581988 2495.39547019 -1606.81201172 2486.08984375 C-1603.67919294 2480.63073036 -1600.5600749 2475.16377654 -1597.43847656 2469.69824219 C-1596.07141858 2467.30493901 -1594.70422741 2464.91171198 -1593.33691406 2462.51855469 C-1592.99479385 2461.91974487 -1592.65267365 2461.32093506 -1592.30018616 2460.70397949 C-1590.24192348 2457.10213321 -1588.18142952 2453.50157433 -1586.11904907 2449.90208435 C-1584.43311699 2446.95956118 -1582.74806029 2444.01653747 -1581.06347656 2441.07324219 C-1580.73128113 2440.49287201 -1580.39908569 2439.91250183 -1580.05682373 2439.31454468 C-1575.34251046 2431.0741728 -1570.68509911 2422.80345 -1566.06347656 2414.51074219 C-1560.99222191 2405.41140922 -1555.78550503 2396.40107587 -1550.50830078 2387.41992188 C-1546.12218216 2379.92773261 -1541.88293924 2372.36164979 -1537.68847656 2364.76074219 C-1532.38476313 2355.1497291 -1526.94429709 2345.63405512 -1521.38330078 2336.16992188 C-1516.67254755 2328.13556613 -1512.10830051 2320.02557369 -1507.57446289 2311.89038086 C-1503.20074975 2304.04947075 -1498.77325638 2296.24042504 -1494.31347656 2288.44824219 C-1493.98077759 2287.86678436 -1493.64807861 2287.28532654 -1493.30529785 2286.68624878 C-1490.59470864 2281.94959484 -1487.8812907 2277.21456316 -1485.16772461 2272.47961426 C-1482.79831649 2268.34491489 -1480.43016353 2264.20949976 -1478.06347656 2260.07324219 C-1477.5649115 2259.2021431 -1477.5649115 2259.2021431 -1477.05627441 2258.31344604 C-1472.34213253 2250.07344601 -1467.68490066 2241.80309391 -1463.06347656 2233.51074219 C-1457.99222191 2224.41140922 -1452.78550503 2215.40107587 -1447.50830078 2206.41992188 C-1443.12218216 2198.92773261 -1438.88293924 2191.36164979 -1434.68847656 2183.76074219 C-1429.38476313 2174.1497291 -1423.94429709 2164.63405512 -1418.38330078 2155.16992188 C-1413.67254755 2147.13556613 -1409.10830051 2139.02557369 -1404.57446289 2130.89038086 C-1400.20074975 2123.04947075 -1395.77325638 2115.24042504 -1391.31347656 2107.44824219 C-1390.98077759 2106.86678436 -1390.64807861 2106.28532654 -1390.30529785 2105.68624878 C-1387.59470864 2100.94959484 -1384.8812907 2096.21456316 -1382.16772461 2091.47961426 C-1379.79831649 2087.34491489 -1377.43016353 2083.20949976 -1375.06347656 2079.07324219 C-1374.73109985 2078.49250946 -1374.39872314 2077.91177673 -1374.05627441 2077.31344604 C-1369.34213253 2069.07344601 -1364.68490066 2060.80309391 -1360.06347656 2052.51074219 C-1355.55072436 2044.41352804 -1350.94705956 2036.37796865 -1346.25097656 2028.38574219 C-1340.55034547 2018.68320554 -1335.04033962 2008.88528376 -1329.6184082 1999.02441406 C-1326.74156764 1993.80360789 -1323.83424994 1988.615983 -1320.76269531 1983.50683594 C-1320.2408667 1982.63454346 -1319.71903809 1981.76225098 -1319.18139648 1980.86352539 C-1318.21638121 1979.26189988 -1317.23943222 1977.66737781 -1316.24829102 1976.08178711 C-1315.82636475 1975.38029541 -1315.40443848 1974.67880371 -1314.96972656 1973.95605469 C-1314.41381836 1973.05910889 -1314.41381836 1973.05910889 -1313.84667969 1972.14404297 C-1312.08732314 1967.11003838 -1315.72465815 1961.0292285 -1317.58300781 1956.34277344 C-1318.2925885 1954.53034758 -1319.00197144 1952.7178443 -1319.71118164 1950.90527344 C-1320.08465729 1949.95475098 -1320.45813293 1949.00422852 -1320.84292603 1948.02490234 C-1328.46636899 1928.59413303 -1335.7309396 1909.07660265 -1342.48065186 1889.32629395 C-1343.1942109 1887.24400842 -1343.91349128 1885.16377837 -1344.63427734 1883.08398438 C-1358.13120997 1844.08466623 -1369.47100211 1804.36378536 -1379.18847656 1764.26074219 C-1379.38056702 1763.4683313 -1379.57265747 1762.67592041 -1379.77056885 1761.85949707 C-1399.30770336 1681.0216699 -1411.77516095 1598.70834211 -1416.93847656 1515.69824219 C-1416.99764252 1514.74750824 -1417.05680847 1513.79677429 -1417.11776733 1512.81723022 C-1417.51617458 1506.30033972 -1417.86493639 1499.78174655 -1418.18847656 1493.26074219 C-1418.23686676 1492.32205292 -1418.28525696 1491.38336365 -1418.33511353 1490.41622925 C-1419.40526673 1469.1022137 -1419.38969178 1447.78310729 -1419.37597656 1426.44824219 C-1419.37557625 1425.05242353 -1419.37557625 1425.05242353 -1419.37516785 1423.62840652 C-1419.36491444 1395.12742126 -1419.1525303 1366.70519368 -1417.18847656 1338.26074219 C-1417.12295593 1337.28663391 -1417.0574353 1336.31252563 -1416.9899292 1335.30889893 C-1410.34361777 1236.64303205 -1394.84262531 1138.62924996 -1298.18847656 848.26074219 C-1297.87779236 847.56029785 -1297.56710815 846.85985352 -1297.24700928 846.13818359 C-1284.57908245 817.58182588 -1271.37954874 789.12519837 -1256.48144531 761.65527344 C-1254.96330186 758.8437268 -1253.4666627 756.02113574 -1251.96972656 753.19824219 C-1244.65456865 739.44627889 -1237.02982426 725.91659871 -1229.10253906 712.50927734 C-1227.00415367 708.94791051 -1224.92313025 705.37675765 -1222.84472656 701.80371094 C-1221.72121835 699.87544455 -1220.5973423 697.94739312 -1219.47329712 696.0194397 C-1218.75850647 694.79240594 -1218.04457517 693.56487106 -1217.33163452 692.33676147 C-1213.06736792 684.99534965 -1208.67621093 677.77688665 -1203.9719696 670.70822144 C-1201.85259618 667.73714713 -1201.85259618 667.73714713 -1201.18847656 664.26074219 C-1245.92882752 651.71176787 -1288.00142516 652.26998161 -1332.18847656 667.26074219 C-1332.84847656 665.61074219 -1333.50847656 663.96074219 -1334.18847656 662.26074219 C-1332.86009766 661.65939453 -1332.86009766 661.65939453 -1331.50488281 661.04589844 C-1306.79667261 649.75409438 -1284.90131628 636.03351874 -1265.18847656 617.26074219 C-1264.48207031 616.6071875 -1263.77566406 615.95363281 -1263.04785156 615.28027344 C-1228.70312008 582.54108835 -1209.552905 532.43028026 -1207.96972656 485.65527344 C-1207.45263912 461.87900757 -1210.21865825 437.0746753 -1218.87597656 414.76074219 C-1220.18847656 411.26074219 -1220.18847656 411.26074219 -1220.18847656 408.26074219 C-1218.53847656 407.93074219 -1216.88847656 407.60074219 -1215.18847656 407.26074219 C-1214.91285889 407.89351074 -1214.63724121 408.5262793 -1214.35327148 409.17822266 C-1203.31062678 434.35026247 -1190.11865375 455.38544602 -1171.18847656 475.26074219 C-1170.4240625 476.08960938 -1169.65964844 476.91847656 -1168.87207031 477.77246094 C-1158.0602515 489.13310304 -1144.87174379 498.6612289 -1131.18847656 506.26074219 C-1130.40424316 506.69660645 -1129.62000977 507.1324707 -1128.81201172 507.58154297 C-1118.21976985 513.41095041 -1107.78139689 518.73415634 -1096.18847656 522.26074219 C-1095.970625 521.73351563 -1095.75277344 521.20628906 -1095.52832031 520.66308594 C-1093.685172 517.35831564 -1091.23630887 514.65179634 -1088.75097656 511.82324219 C-1087.66197792 510.56973279 -1086.57344662 509.31581726 -1085.48535156 508.06152344 C-1084.93427734 507.42811035 -1084.38320312 506.79469727 -1083.81542969 506.14208984 C-1081.34833075 503.28922904 -1078.92634912 500.39905789 -1076.50097656 497.51074219 C-1072.49975466 492.76183523 -1068.40323188 488.11086156 -1064.22753906 483.51464844 C-1062.3976141 481.49191529 -1060.59965928 479.44704784 -1058.81347656 477.38574219 C-1055.40541821 473.47278631 -1051.89992377 469.65158819 -1048.38525391 465.8347168 C-1045.37492563 462.56363109 -1042.39760573 459.26590066 -1039.43847656 455.94824219 C-1036.38025288 452.53630936 -1033.23074186 449.26930037 -1029.95887756 446.06358337 C-1028.25502899 444.32851409 -1026.67903573 442.53702239 -1025.10424805 440.68481445 C-1020.67925198 435.60006605 -1015.9310226 430.85976208 -1011.16113281 426.10058594 C-1010.20366632 425.14244358 -1009.24634811 424.18415302 -1008.28916931 423.22572327 C-1006.29473909 421.22982932 -1004.29853916 419.23572767 -1002.30102539 417.24291992 C-999.76173258 414.70932355 -997.22695754 412.17126235 -994.69350529 409.63182735 C-992.72115472 407.65583515 -990.74639393 405.68226539 -988.77093315 403.70938301 C-987.38721029 402.3266362 -986.00547342 400.94190288 -984.62379456 399.55711365 C-980.14340453 395.09318935 -975.61006877 390.76248853 -970.80101013 386.65309143 C-968.82782676 384.94933752 -966.99874532 383.1356634 -965.18847656 381.26074219 C-962.08133734 378.11153338 -958.86357353 375.18097252 -955.50878906 372.29980469 C-953.14800321 370.22517469 -950.84895307 368.09578347 -948.55224609 365.95092773 C-943.16974162 360.92511413 -937.68078395 356.15006872 -931.93457031 351.53808594 C-928.92526078 349.04245656 -926.04947776 346.42269328 -923.18847656 343.76074219 C-918.68791259 339.5831852 -914.06781696 335.61360999 -909.28613281 331.76074219 C-906.21257509 329.28019119 -903.16545313 326.77024108 -900.12182617 324.25317383 C-887.96381543 314.20238848 -875.68912774 304.31686807 -863.14257812 294.75390625 C-860.85926917 293.00918891 -858.58266076 291.25587651 -856.30566406 289.50292969 C-846.79470877 282.19754045 -837.21096296 275.05153436 -827.37207031 268.19433594 C-823.66886748 265.61092985 -820.01241186 262.9672949 -816.36230469 260.30957031 C-808.36911681 254.48955161 -800.27281185 248.881696 -792.00634766 243.45800781 C-789.55268705 241.84200571 -787.11328085 240.20509709 -784.6730957 238.56884766 C-747.6351054 213.76015309 -709.32155163 190.85628693 -670.03515625 169.79736328 C-667.29752616 168.31960652 -664.57291316 166.82077208 -661.85253906 165.31152344 C-638.63762873 152.44729217 -614.80319533 140.84217936 -590.65527344 129.84033203 C-588.36064182 128.7948203 -586.06764298 127.74571691 -583.77636719 126.69287109 C-502.90419063 89.55131831 -417.87306967 60.45968304 -112.84082031 4.35449219 C-112.13035049 4.29386597 -111.41988068 4.23323975 -110.68788147 4.17077637 C-73.84428722 1.14542729 -36.95933643 -0.08763032 0 0 Z M-1097.73730469 530.56738281 C-1098.47110352 531.48293945 -1098.47110352 531.48293945 -1099.21972656 532.41699219 C-1099.77660156 533.10140381 -1100.33347656 533.78581543 -1100.90722656 534.4909668 C-1101.49503906 535.23999268 -1102.08285156 535.98901855 -1102.68847656 536.76074219 C-1103.30722656 537.5310376 -1103.92597656 538.30133301 -1104.56347656 539.0949707 C-1109.55518536 545.34931076 -1114.3661602 551.73542394 -1119.12597656 558.16699219 C-1122.39963915 562.57450145 -1125.79529855 566.88255693 -1129.18847656 571.19824219 C-1134.76264455 578.31389344 -1140.04487891 585.58931115 -1145.20800781 593.00683594 C-1147.70254916 596.58724612 -1150.26130855 600.11591162 -1152.83935547 603.63647461 C-1160.68906819 614.37080695 -1168.04600389 625.41483544 -1175.37158203 636.51123047 C-1177.88219834 640.31055335 -1180.409407 644.09868984 -1182.93847656 647.88574219 C-1183.68337705 649.00285714 -1184.42817672 650.12003931 -1185.17285156 651.23730469 C-1186.5807625 653.34917109 -1188.00962168 655.4471553 -1189.45410156 657.53417969 C-1191.36738291 660.00342265 -1191.36738291 660.00342265 -1191.18847656 662.26074219 C-1189.53525391 662.97037109 -1189.53525391 662.97037109 -1187.84863281 663.69433594 C-1148.11693283 680.92480741 -1113.92985216 706.85493581 -1091.36035156 744.45214844 C-1090.78027344 745.34740234 -1090.78027344 745.34740234 -1090.18847656 746.26074219 C-1089.85847656 746.26074219 -1089.52847656 746.26074219 -1089.18847656 746.26074219 C-1089.33317187 744.46898325 -1089.47930917 742.67734077 -1089.62597656 740.88574219 C-1089.7071875 739.88800781 -1089.78839844 738.89027344 -1089.87207031 737.86230469 C-1090.04005872 735.95014034 -1090.21457061 734.03807472 -1090.43798828 732.1315918 C-1096.32796493 680.50110025 -1082.13973704 626.44024269 -1049.80175781 585.50537109 C-1046.69834196 581.6663066 -1043.46780311 577.949686 -1040.18847656 574.26074219 C-1039.31964844 573.26945312 -1038.45082031 572.27816406 -1037.55566406 571.25683594 C-1030.34731314 563.15570761 -1022.48907359 556.32343233 -1013.87597656 549.76074219 C-1013.14193604 549.1997583 -1012.40789551 548.63877441 -1011.65161133 548.06079102 C-1006.01749473 543.79678493 -1000.26735605 539.87130776 -994.18847656 536.26074219 C-997.78147069 535.06307748 -999.71689982 535.5154794 -1003.43847656 536.13574219 C-1031.75365 540.45154617 -1063.03575195 539.2032279 -1090.31347656 529.77636719 C-1093.17005842 528.99080718 -1095.38078857 528.57935093 -1097.73730469 530.56738281 Z M-886.18847656 570.26074219 C-886.20305908 570.84863525 -886.2176416 571.43652832 -886.23266602 572.04223633 C-887.08535188 602.94080016 -894.51124913 628.28527119 -917.22363281 650.50292969 C-920.0443617 653.0264446 -923.07196663 655.11814161 -926.18847656 657.26074219 C-926.18847656 657.59074219 -926.18847656 657.92074219 -926.18847656 658.26074219 C-925.56505371 658.27532471 -924.94163086 658.28990723 -924.29931641 658.30493164 C-892.93672792 659.12265898 -867.81170211 667.04217836 -845.32519531 689.91699219 C-842.91470971 692.5610349 -841.03568589 695.20883113 -839.18847656 698.26074219 C-838.85847656 698.26074219 -838.52847656 698.26074219 -838.18847656 698.26074219 C-838.17913086 697.65302979 -838.16978516 697.04531738 -838.16015625 696.41918945 C-837.5579016 665.07537739 -829.33513912 639.81328702 -806.53222656 617.39746094 C-803.88818385 614.98697533 -801.24038762 613.10795151 -798.18847656 611.26074219 C-798.18847656 610.93074219 -798.18847656 610.60074219 -798.18847656 610.26074219 C-798.76065918 610.25139648 -799.3328418 610.24205078 -799.92236328 610.23242188 C-830.4141867 609.61150633 -855.18291147 602.14091945 -877.18847656 580.26074219 C-879.14494661 578.15429883 -881.04049633 576.02486779 -882.88378906 573.81933594 C-884.25152055 572.1388115 -884.25152055 572.1388115 -886.18847656 570.26074219 Z M-1089.18847656 746.26074219 C-1088.18847656 748.26074219 -1088.18847656 748.26074219 -1088.18847656 748.26074219 Z " fill="#FFFFFF" transform="translate(1702.1884765625,757.7392578125)"/>
  <path d="M0 0 C1.32 0.66 2.64 1.32 4 2 C2.52513359 7.25606755 -0.85950894 10.16260106 -4.6875 13.8125 C-5.96669463 15.05930176 -7.24405952 16.30798374 -8.51953125 17.55859375 C-9.12748535 18.15397949 -9.73543945 18.74936523 -10.36181641 19.36279297 C-12.86161665 21.86110302 -15.14749494 24.51588599 -17.4296875 27.2109375 C-19.82947087 29.94501906 -22.44409678 32.45263272 -25.03515625 35.00390625 C-26.92230744 36.92107177 -28.68685375 38.89575322 -30.4375 40.9375 C-33.71130653 44.74824063 -37.23363971 48.25078165 -40.80859375 51.77734375 C-43.42101068 54.4270144 -45.83302621 57.21172803 -48.25390625 60.03515625 C-50.72603418 62.81699148 -53.38430547 65.39375951 -56.03515625 68.00390625 C-57.92230744 69.92107177 -59.68685375 71.89575322 -61.4375 73.9375 C-64.71130653 77.74824063 -68.23363971 81.25078165 -71.80859375 84.77734375 C-74.42101068 87.4270144 -76.83302621 90.21172803 -79.25390625 93.03515625 C-81.72603418 95.81699148 -84.38430547 98.39375951 -87.03515625 101.00390625 C-88.92230744 102.92107177 -90.68685375 104.89575322 -92.4375 106.9375 C-95.71130653 110.74824063 -99.23363971 114.25078165 -102.80859375 117.77734375 C-105.42101068 120.4270144 -107.83302621 123.21172803 -110.25390625 126.03515625 C-112.72603418 128.81699148 -115.38430547 131.39375951 -118.03515625 134.00390625 C-119.92230744 135.92107177 -121.68685375 137.89575322 -123.4375 139.9375 C-126.71130653 143.74824063 -130.23363971 147.25078165 -133.80859375 150.77734375 C-136.42101068 153.4270144 -138.83302621 156.21172803 -141.25390625 159.03515625 C-143.72603418 161.81699148 -146.38430547 164.39375951 -149.03515625 167.00390625 C-150.92230744 168.92107177 -152.68685375 170.89575322 -154.4375 172.9375 C-157.71130653 176.74824063 -161.23363971 180.25078165 -164.80859375 183.77734375 C-167.42101068 186.4270144 -169.83302621 189.21172803 -172.25390625 192.03515625 C-174.72603418 194.81699148 -177.38430547 197.39375951 -180.03515625 200.00390625 C-181.92230744 201.92107177 -183.68685375 203.89575322 -185.4375 205.9375 C-188.00665271 208.92801716 -190.69317256 211.73116684 -193.5 214.5 C-196.28621141 217.2485599 -198.95308392 220.02859791 -201.5 223 C-204.75044651 226.79218759 -208.25449569 230.27135531 -211.80859375 233.77734375 C-214.42101068 236.4270144 -216.83302621 239.21172803 -219.25390625 242.03515625 C-221.09615675 244.10820324 -223.02401662 246.05435802 -225 248 C-228.86219681 251.8171128 -232.6637785 255.70799613 -236 260 C-236.41781738 260.52980469 -236.83563477 261.05960938 -237.26611328 261.60546875 C-238.4495122 265.46667187 -236.6532834 268.59386037 -235.1875 272.171875 C-234.86772186 272.98898956 -234.54794373 273.80610413 -234.21847534 274.64797974 C-233.5233806 276.4212774 -232.82167384 278.19199413 -232.11419678 279.96038818 C-230.2099655 284.72800749 -228.36201378 289.51743984 -226.5078125 294.3046875 C-226.1264212 295.28603668 -225.74502991 296.26738586 -225.3520813 297.2784729 C-190.3911778 387.50654518 -166.80961165 482.47779516 -140.09375 678.34765625 C-140.03312378 679.05812607 -139.97249756 679.76859589 -139.91003418 680.50059509 C-136.8846851 717.34418934 -135.65162749 754.22914013 -135.73925781 791.18847656 C-135.75065108 796.0308169 -135.7438496 800.87293715 -135.73237991 805.71527004 C-135.66194272 840.85166099 -136.89906686 875.91095326 -139.75 910.9375 C-139.83270142 911.9710965 -139.91540283 913.00469299 -140.00061035 914.0696106 C-148.1600453 1015.15900494 -166.90647225 1115.72824396 -200 1223 C-200.28294922 1223.90341125 -200.56589844 1224.80682251 -200.85742188 1225.73760986 C-220.33350174 1287.79185961 -244.16048333 1348.22402635 -272 1407 C-272.81307617 1408.72089844 -272.81307617 1408.72089844 -273.64257812 1410.4765625 C-286.67941861 1437.9970711 -300.38426481 1465.20033691 -315.61523438 1491.57714844 C-317.31346249 1494.54844883 -318.95163942 1497.54992829 -320.58740234 1500.5559082 C-326.96206553 1512.24368315 -333.95287458 1523.55860323 -340.89918518 1534.91131592 C-343.618631 1539.36114173 -346.29452446 1543.8354956 -348.95654297 1548.31982422 C-353.90404648 1556.64722462 -359.05785018 1564.77411057 -364.50244141 1572.78369141 C-366.97032403 1576.43602895 -369.40285047 1580.11183294 -371.84155273 1583.78369141 C-382.90687481 1600.43387552 -394.20892011 1616.85523864 -406 1633 C-406.85730713 1634.1746582 -406.85730713 1634.1746582 -407.73193359 1635.37304688 C-423.11135421 1656.41721359 -439.03432889 1677.00646295 -455.5234375 1697.19140625 C-456.83047541 1698.7923548 -458.13423356 1700.39597976 -459.4375 1702 C-464.72719565 1708.49876894 -470.11269631 1714.91179078 -475.54541016 1721.29101562 C-476.52539302 1722.44238858 -477.50421145 1723.59475354 -478.48193359 1724.74804688 C-484.69923643 1732.08158753 -491.02624786 1739.28187907 -497.5546875 1746.33984375 C-499.55160793 1748.51221246 -501.50828734 1750.70539163 -503.4375 1752.9375 C-507.37312044 1757.46858075 -511.44714897 1761.8702284 -515.53271484 1766.265625 C-517.71879415 1768.61796542 -519.89896348 1770.97552373 -522.07446289 1773.33764648 C-532.6889106 1784.8095004 -543.71116294 1795.86576235 -554.77270508 1806.90307617 C-557.4306234 1809.55523875 -560.08394273 1812.21195038 -562.73601437 1814.86995792 C-564.81300847 1816.95058578 -566.89240293 1819.02880164 -568.97250557 1821.10632133 C-569.95188958 1822.08504693 -570.93055557 1823.06449166 -571.9084301 1824.04472542 C-576.89111065 1829.03681455 -581.90012183 1833.92619523 -587.27857971 1838.49266052 C-589.1021088 1840.08941026 -590.8033547 1841.76971453 -592.5 1843.5 C-595.44600215 1846.49234375 -598.52983007 1849.25324172 -601.7109375 1851.9921875 C-603.93564472 1853.94355185 -606.11153265 1855.94168456 -608.28076172 1857.9543457 C-613.46474081 1862.76237477 -618.77450125 1867.31850101 -624.28515625 1871.75390625 C-627.10673495 1874.0883059 -629.80590712 1876.51990598 -632.5 1879 C-636.91640144 1883.05983645 -641.46163522 1886.89323821 -646.12890625 1890.66015625 C-648.67806584 1892.73763461 -651.18805436 1894.85047372 -653.68774414 1896.98657227 C-660.40594719 1902.72758214 -667.28758631 1908.22485357 -674.26464844 1913.64697266 C-675.93468403 1914.94907413 -677.597616 1916.25960394 -679.2578125 1917.57421875 C-695.53521289 1930.45736021 -712.08155763 1942.9707434 -729 1955 C-729.6791748 1955.48355957 -730.35834961 1955.96711914 -731.05810547 1956.46533203 C-735.24190595 1959.44054607 -739.4382597 1962.39740411 -743.64208984 1965.34423828 C-745.29007176 1966.50147719 -746.93607335 1967.66153906 -748.58056641 1968.82373047 C-762.52494196 1978.67815634 -776.69901732 1988.08348244 -791.14013672 1997.19384766 C-793.70388513 1998.81298806 -796.26156406 2000.44107715 -798.81640625 2002.07421875 C-819.19052599 2015.07172935 -839.85634329 2027.60641322 -860.99169922 2039.328125 C-864.16844165 2041.09361211 -867.33619453 2042.87461599 -870.50390625 2044.65625 C-935.37754072 2080.9772065 -1003.14543977 2111.60851053 -1073 2137 C-1073.78310547 2137.28488281 -1074.56621094 2137.56976562 -1075.37304688 2137.86328125 C-1161.85537423 2169.27192566 -1251.10511838 2191.81550908 -1342 2206 C-1343.31442078 2206.20595795 -1343.31442078 2206.20595795 -1344.65539551 2206.41607666 C-1393.09714106 2213.9718459 -1442.03984255 2218.60345208 -1491 2221 C-1491.91209229 2221.04732269 -1492.82418457 2221.09464539 -1493.76391602 2221.1434021 C-1515.78968013 2222.26299938 -1537.82700962 2222.20095864 -1559.875 2222.1875 C-1561.34336618 2222.18709969 -1561.34336618 2222.18709969 -1562.84139633 2222.18669128 C-1590.72467072 2222.17714808 -1618.56275613 2222.15825497 -1646.38970947 2220.18359375 C-1649.21426686 2219.98492963 -1652.03941593 2219.79671634 -1654.86474609 2219.609375 C-1754.25935236 2212.94422431 -1853.17430503 2196.65954854 -1977 2161 C-1978.3780481 2160.57717743 -1978.3780481 2160.57717743 -1979.78393555 2160.14581299 C-2033.69461428 2143.58410345 -2086.50140193 2124.01101433 -2138 2101 C-2138.68487488 2100.69408936 -2139.36974976 2100.38817871 -2140.07537842 2100.07299805 C-2145.18083091 2097.7901275 -2150.27957856 2095.49266328 -2155.375 2093.1875 C-2156.04643036 2092.88447968 -2156.71786072 2092.58145935 -2157.40963745 2092.26925659 C-2158.06263824 2091.97407135 -2158.71563904 2091.67888611 -2159.38842773 2091.37475586 C-2159.95287094 2091.11979843 -2160.51731415 2090.864841 -2161.09886169 2090.60215759 C-2161.81647171 2090.27325027 -2162.53408173 2089.94434296 -2163.2734375 2089.60546875 C-2164.44292057 2089.07594384 -2165.61240364 2088.54641893 -2166.81732559 2088.00084782 C-2169.48831903 2086.75884006 -2172.04534207 2085.42955641 -2174.58064747 2083.93099976 C-2185.22002818 2077.78430499 -2194.054836 2076.89836628 -2206.16870117 2077.05859375 C-2208.1111384 2077.053356 -2210.05356775 2077.04386547 -2211.99596691 2077.03062439 C-2216.3054188 2077.00560694 -2220.61428048 2077.00117613 -2224.92379379 2077.00897217 C-2232.42964569 2077.01230884 -2239.93286833 2076.91090445 -2247.43765259 2076.79345703 C-2248.80029926 2076.77242411 -2250.16294618 2076.75140752 -2251.52559334 2076.73040676 C-2253.62132782 2076.69804333 -2255.71706126 2076.66562174 -2257.81279093 2076.63294834 C-2265.96290537 2076.50689753 -2274.11330441 2076.40457377 -2282.26374817 2076.30249023 C-2283.8185962 2076.28289705 -2285.37344406 2076.26328972 -2286.92829174 2076.24366856 C-2289.30028541 2076.2137513 -2291.67227935 2076.18385725 -2294.04427432 2076.1540429 C-2302.28127078 2076.05045201 -2310.51823187 2075.94415706 -2318.75519242 2075.8377558 C-2333.51800881 2075.64710717 -2348.28084658 2075.45817375 -2363.04370117 2075.27050781 C-2377.18889012 2075.09068741 -2391.33407428 2074.91050289 -2405.47924805 2074.72949219 C-2406.78274697 2074.7128124 -2406.78274697 2074.7128124 -2408.1125792 2074.69579566 C-2417.68872754 2074.57323629 -2427.26487286 2074.45044357 -2436.84101391 2074.32731628 C-2437.69340584 2074.31635656 -2438.54579776 2074.30539683 -2439.42401975 2074.29410499 C-2442.84101545 2074.25016563 -2446.25801107 2074.20622077 -2449.67500629 2074.1622442 C-2458.70118325 2074.04607888 -2467.72736444 2073.93027965 -2476.75356483 2073.81594849 C-2518.8369781 2073.28287679 -2560.9187565 2072.68439846 -2603 2072 C-2601.66999923 2068.00999768 -2599.04983578 2066.44458919 -2595.8125 2064 C-2594.52464001 2063.00794174 -2593.23688233 2062.01575067 -2591.94921875 2061.0234375 C-2591.28970215 2060.5190918 -2590.63018555 2060.01474609 -2589.95068359 2059.49511719 C-2586.99150677 2057.22703222 -2584.05680881 2054.92829308 -2581.125 2052.625 C-2580.55370361 2052.17705078 -2579.98240723 2051.72910156 -2579.39379883 2051.26757812 C-2574.89003065 2047.72600414 -2570.43978513 2044.12131298 -2566 2040.5 C-2558.17638634 2034.11866558 -2550.24928465 2027.87801305 -2542.29101562 2021.66601562 C-2535.4738463 2016.34131666 -2528.7033374 2010.96758053 -2522 2005.5 C-2514.17638634 1999.11866558 -2506.24928465 1992.87801305 -2498.29101562 1986.66601562 C-2491.4738463 1981.34131666 -2484.7033374 1975.96758053 -2478 1970.5 C-2470.17638634 1964.11866558 -2462.24928465 1957.87801305 -2454.29101562 1951.66601562 C-2447.4738463 1946.34131666 -2440.7033374 1940.96758053 -2434 1935.5 C-2426.17638634 1929.11866558 -2418.24928465 1922.87801305 -2410.29101562 1916.66601562 C-2403.4738463 1911.34131666 -2396.7033374 1905.96758053 -2390 1900.5 C-2382.17638634 1894.11866558 -2374.24928465 1887.87801305 -2366.29101562 1881.66601562 C-2359.4738463 1876.34131666 -2352.7033374 1870.96758053 -2346 1865.5 C-2338.17638634 1859.11866558 -2330.24928465 1852.87801305 -2322.29101562 1846.66601562 C-2315.53227207 1841.38695139 -2308.82463919 1836.0564179 -2302.1875 1830.625 C-2296.7270046 1826.15840331 -2291.18786291 1821.81932183 -2285.5625 1817.5625 C-2278.96184154 1812.56470723 -2272.54004736 1807.38542578 -2266.17089844 1802.09667969 C-2259.54639964 1796.60132195 -2252.79121032 1791.28684068 -2246 1786 C-2238.60944377 1780.2353238 -2231.26341786 1774.42441044 -2224 1768.5 C-2216.17638634 1762.11866558 -2208.24928465 1755.87801305 -2200.29101562 1749.66601562 C-2193.4738463 1744.34131666 -2186.7033374 1738.96758053 -2180 1733.5 C-2172.17638634 1727.11866558 -2164.24928465 1720.87801305 -2156.29101562 1714.66601562 C-2149.4738463 1709.34131666 -2142.7033374 1703.96758053 -2136 1698.5 C-2128.17638634 1692.11866558 -2120.24928465 1685.87801305 -2112.29101562 1679.66601562 C-2105.4738463 1674.34131666 -2098.7033374 1668.96758053 -2092 1663.5 C-2084.17638634 1657.11866558 -2076.24928465 1650.87801305 -2068.29101562 1644.66601562 C-2061.4738463 1639.34131666 -2054.7033374 1633.96758053 -2048 1628.5 C-2040.17638634 1622.11866558 -2032.24928465 1615.87801305 -2024.29101562 1609.66601562 C-2017.4738463 1604.34131666 -2010.7033374 1598.96758053 -2004 1593.5 C-1996.17638634 1587.11866558 -1988.24928465 1580.87801305 -1980.29101562 1574.66601562 C-1973.4738463 1569.34131666 -1966.7033374 1563.96758053 -1960 1558.5 C-1952.17638634 1552.11866558 -1944.24928465 1545.87801305 -1936.29101562 1539.66601562 C-1929.4738463 1534.34131666 -1922.7033374 1528.96758053 -1916 1523.5 C-1908.17638634 1517.11866558 -1900.24928465 1510.87801305 -1892.29101562 1504.66601562 C-1885.4738463 1499.34131666 -1878.7033374 1493.96758053 -1872 1488.5 C-1864.17638634 1482.11866558 -1856.24928465 1475.87801305 -1848.29101562 1469.66601562 C-1841.4738463 1464.34131666 -1834.7033374 1458.96758053 -1828 1453.5 C-1820.17638634 1447.11866558 -1812.24928465 1440.87801305 -1804.29101562 1434.66601562 C-1797.4738463 1429.34131666 -1790.7033374 1423.96758053 -1784 1418.5 C-1776.17638634 1412.11866558 -1768.24928465 1405.87801305 -1760.29101562 1399.66601562 C-1753.4738463 1394.34131666 -1746.7033374 1388.96758053 -1740 1383.5 C-1732.17638634 1377.11866558 -1724.24928465 1370.87801305 -1716.29101562 1364.66601562 C-1709.4738463 1359.34131666 -1702.7033374 1353.96758053 -1696 1348.5 C-1688.17638634 1342.11866558 -1680.24928465 1335.87801305 -1672.29101562 1329.66601562 C-1665.4738463 1324.34131666 -1658.7033374 1318.96758053 -1652 1313.5 C-1644.17638634 1307.11866558 -1636.24928465 1300.87801305 -1628.29101562 1294.66601562 C-1621.4738463 1289.34131666 -1614.7033374 1283.96758053 -1608 1278.5 C-1600.17638634 1272.11866558 -1592.24928465 1265.87801305 -1584.29101562 1259.66601562 C-1577.4738463 1254.34131666 -1570.7033374 1248.96758053 -1564 1243.5 C-1556.17638634 1237.11866558 -1548.24928465 1230.87801305 -1540.29101562 1224.66601562 C-1531.33660068 1217.67197431 -1522.49051095 1210.55457209 -1513.68701172 1203.37158203 C-1511.46849597 1201.56787415 -1509.23643433 1199.78142082 -1507 1198 C-1503.67957732 1199.27443913 -1500.55840492 1200.69474554 -1497.4375 1202.3984375 C-1496.56947754 1202.87144287 -1495.70145508 1203.34444824 -1494.80712891 1203.83178711 C-1493.88077637 1204.34104736 -1492.95442383 1204.85030762 -1492 1205.375 C-1491.02595215 1205.90810791 -1490.0519043 1206.44121582 -1489.04833984 1206.99047852 C-1481.65953961 1211.049846 -1474.33978233 1215.22194535 -1467.03466797 1219.42944336 C-1459.4529838 1223.77943993 -1451.77501155 1227.93843062 -1444.07592773 1232.07617188 C-1437.22322403 1235.76841105 -1430.44381523 1239.57222922 -1423.6875 1243.4375 C-1414.37265979 1248.75360606 -1404.9196747 1253.75936625 -1395.36401367 1258.62866211 C-1388.322915 1262.22832801 -1381.37373918 1265.96919134 -1374.44140625 1269.7734375 C-1363.88655725 1275.55679956 -1353.22819136 1281.10869458 -1342.5 1286.5625 C-1341.54564056 1287.04868805 -1340.59128113 1287.5348761 -1339.60800171 1288.03579712 C-1320.47737611 1297.7789759 -1301.29493154 1307.41991731 -1282.10189819 1317.03944016 C-1279.84995146 1318.16871929 -1277.59870677 1319.29938604 -1275.34765625 1320.43045044 C-1257.35425981 1329.46845553 -1239.27650653 1338.23443978 -1220.97341919 1346.62979126 C-1216.7710137 1348.56634052 -1212.58824531 1350.54289071 -1208.41015625 1352.53125 C-1207.71145416 1352.86342026 -1207.01275208 1353.19559052 -1206.2928772 1353.53782654 C-1204.91792858 1354.19159329 -1203.54304984 1354.84550704 -1202.16824341 1355.49957275 C-1186.66768885 1362.86380196 -1171.09766869 1370.05078992 -1155.38482666 1376.95245361 C-1153.68660941 1377.69840357 -1151.98868305 1378.44501591 -1150.29095459 1379.19207764 C-1103.52388362 1399.76802393 -1056.45117467 1419.36881709 -1008.51660156 1437.07019043 C-1006.11828778 1437.95629618 -1003.72112036 1438.84543429 -1001.32421875 1439.73535156 C-933.45231629 1464.8966497 -863.59502123 1487.3618743 -792 1499 C-790.71738281 1499.20947266 -789.43476563 1499.41894531 -788.11328125 1499.63476562 C-745.18078999 1506.46392356 -691.59314832 1512.82668992 -653 1488 C-641.68637345 1479.76861145 -635.36236447 1468.3713815 -632.5390625 1454.78125 C-625.43986818 1406.42998061 -662.6738992 1355.41051218 -689.74316406 1318.96557617 C-698.68125752 1307.03769796 -707.77055524 1295.257415 -717.484375 1283.94921875 C-719.89172596 1281.12693618 -722.23338476 1278.26196277 -724.5625 1275.375 C-728.43929769 1270.61049192 -732.51471532 1266.0635611 -736.671875 1261.54296875 C-738.60694262 1259.42932946 -740.50208297 1257.29340152 -742.375 1255.125 C-746.43685206 1250.45434576 -750.65265936 1245.92657799 -754.86328125 1241.390625 C-756.81346901 1239.28868323 -758.74562412 1237.17468252 -760.66796875 1235.046875 C-769.94146883 1224.79623658 -779.79390638 1215.11400339 -789.60327148 1205.38085938 C-793.83125128 1201.18087374 -798.03725241 1196.95917496 -802.2401886 1192.73416138 C-805.02813921 1189.93273593 -807.81882233 1187.13403894 -810.60961914 1184.33544922 C-812.07373997 1182.86629816 -813.53696221 1181.39625103 -814.99926758 1179.92529297 C-817.12860989 1177.78371444 -819.26126016 1175.64547668 -821.39453125 1173.5078125 C-822.03751663 1172.85966583 -822.68050201 1172.21151917 -823.3429718 1171.54373169 C-827.15499568 1167.73124634 -831.07715866 1164.1125568 -835.17558289 1160.60910034 C-837.02954969 1158.97393775 -838.76986795 1157.26495667 -840.5 1155.5 C-842.82437087 1153.13641028 -845.20513786 1150.91114043 -847.71875 1148.75 C-852.60636103 1144.50088094 -857.29899449 1140.05856967 -862 1135.60546875 C-865.99434196 1131.83736882 -870.05379722 1128.16694898 -874.20068359 1124.56738281 C-876.43587413 1122.62031046 -878.62470003 1120.62505531 -880.8125 1118.625 C-884.25378205 1115.51471149 -887.76321298 1112.53521688 -891.375 1109.625 C-895.92700307 1105.94492991 -900.23252248 1102.07477116 -904.51464844 1098.09082031 C-908.64881228 1094.26705324 -912.9649775 1090.71157972 -917.3515625 1087.1796875 C-919.97275119 1085.02242601 -922.49154281 1082.78689 -925 1080.5 C-929.24651686 1076.63466655 -933.6301311 1072.98601754 -938.09375 1069.375 C-941.20392541 1066.83335128 -944.25905248 1064.23410083 -947.3125 1061.625 C-952.35928345 1057.32279931 -957.52442234 1053.20129861 -962.76000977 1049.13208008 C-966.83730305 1045.94951198 -970.81556946 1042.66975673 -974.75 1039.3125 C-982.81739395 1032.42883658 -991.13669548 1025.88268094 -999.48291016 1019.34326172 C-1003.16239627 1016.45667479 -1006.82000085 1013.54479393 -1010.46337891 1010.61279297 C-1017.05713988 1005.30748806 -1023.72627131 1000.11482769 -1030.46118164 994.98999023 C-1035.58452304 991.08992665 -1040.67435596 987.14938738 -1045.75 983.1875 C-1059.66146106 972.34523419 -1073.67936082 961.64973687 -1087.90380859 951.22094727 C-1093.65561085 947.00196141 -1099.36493172 942.72936758 -1105.0625 938.4375 C-1113.65067697 931.97455283 -1122.32072874 925.63157779 -1131.06860352 919.38647461 C-1132.37223577 918.45064759 -1133.66950204 917.50589732 -1134.96069336 916.55297852 C-1138.31446976 914.09365941 -1140.78957645 912.38276578 -1145 912 C-1142.0397187 907.97631668 -1138.7069721 904.98987319 -1134.75 902 C-1133.49506606 901.03388554 -1132.24120214 900.06637995 -1130.98828125 899.09765625 C-1130.33553223 898.59379395 -1129.6827832 898.08993164 -1129.01025391 897.57080078 C-1125.60913408 894.91318541 -1122.27647956 892.17246734 -1118.9375 889.4375 C-1113.15067401 884.70961063 -1107.28177735 880.12157803 -1101.33984375 875.58984375 C-1097.5220669 872.65282767 -1093.79286477 869.60927609 -1090.0625 866.5625 C-1082.22014034 860.15725135 -1074.27264072 853.89624413 -1066.29101562 847.66601562 C-1059.4738463 842.34131666 -1052.7033374 836.96758053 -1046 831.5 C-1038.17638634 825.11866558 -1030.24928465 818.87801305 -1022.29101562 812.66601562 C-1015.4738463 807.34131666 -1008.7033374 801.96758053 -1002 796.5 C-994.17638634 790.11866558 -986.24928465 783.87801305 -978.29101562 777.66601562 C-971.4738463 772.34131666 -964.7033374 766.96758053 -958 761.5 C-950.17638634 755.11866558 -942.24928465 748.87801305 -934.29101562 742.66601562 C-927.4738463 737.34131666 -920.7033374 731.96758053 -914 726.5 C-906.17638634 720.11866558 -898.24928465 713.87801305 -890.29101562 707.66601562 C-883.53227207 702.38695139 -876.82463919 697.0564179 -870.1875 691.625 C-864.7270046 687.15840331 -859.18786291 682.81932183 -853.5625 678.5625 C-846.96184154 673.56470723 -840.54004736 668.38542578 -834.17089844 663.09667969 C-827.54639964 657.60132195 -820.79121032 652.28684068 -814 647 C-806.60944377 641.2353238 -799.26341786 635.42441044 -792 629.5 C-784.17638634 623.11866558 -776.24928465 616.87801305 -768.29101562 610.66601562 C-761.4738463 605.34131666 -754.7033374 599.96758053 -748 594.5 C-740.17638634 588.11866558 -732.24928465 581.87801305 -724.29101562 575.66601562 C-717.4738463 570.34131666 -710.7033374 564.96758053 -704 559.5 C-696.17638634 553.11866558 -688.24928465 546.87801305 -680.29101562 540.66601562 C-673.4738463 535.34131666 -666.7033374 529.96758053 -660 524.5 C-652.17638634 518.11866558 -644.24928465 511.87801305 -636.29101562 505.66601562 C-629.4738463 500.34131666 -622.7033374 494.96758053 -616 489.5 C-608.17638634 483.11866558 -600.24928465 476.87801305 -592.29101562 470.66601562 C-585.4738463 465.34131666 -578.7033374 459.96758053 -572 454.5 C-564.17638634 448.11866558 -556.24928465 441.87801305 -548.29101562 435.66601562 C-541.4738463 430.34131666 -534.7033374 424.96758053 -528 419.5 C-520.17638634 413.11866558 -512.24928465 406.87801305 -504.29101562 400.66601562 C-497.4738463 395.34131666 -490.7033374 389.96758053 -484 384.5 C-476.17638634 378.11866558 -468.24928465 371.87801305 -460.29101562 365.66601562 C-453.4738463 360.34131666 -446.7033374 354.96758053 -440 349.5 C-432.17638634 343.11866558 -424.24928465 336.87801305 -416.29101562 330.66601562 C-409.4738463 325.34131666 -402.7033374 319.96758053 -396 314.5 C-388.17638634 308.11866558 -380.24928465 301.87801305 -372.29101562 295.66601562 C-365.4738463 290.34131666 -358.7033374 284.96758053 -352 279.5 C-344.17638634 273.11866558 -336.24928465 266.87801305 -328.29101562 260.66601562 C-321.4738463 255.34131666 -314.7033374 249.96758053 -308 244.5 C-300.17638634 238.11866558 -292.24928465 231.87801305 -284.29101562 225.66601562 C-277.45050815 220.32308789 -270.66016913 214.92824122 -263.9375 209.4375 C-258.14992425 204.71049647 -252.28181591 200.12160744 -246.33984375 195.58984375 C-242.5220669 192.65282767 -238.79286477 189.60927609 -235.0625 186.5625 C-227.22014034 180.15725135 -219.27264072 173.89624413 -211.29101562 167.66601562 C-204.4738463 162.34131666 -197.7033374 156.96758053 -191 151.5 C-183.17638634 145.11866558 -175.24928465 138.87801305 -167.29101562 132.66601562 C-160.4738463 127.34131666 -153.7033374 121.96758053 -147 116.5 C-139.17638634 110.11866558 -131.24928465 103.87801305 -123.29101562 97.66601562 C-116.4738463 92.34131666 -109.7033374 86.96758053 -103 81.5 C-95.17638634 75.11866558 -87.24928465 68.87801305 -79.29101562 62.66601562 C-71.78296975 56.80169245 -64.34549047 50.86111529 -56.96362305 44.83862305 C-52.09037015 40.86906645 -47.17031232 36.96497145 -42.21875 33.09375 C-37.95536743 29.75845071 -33.72221177 26.38723431 -29.5 23 C-19.77025178 15.20027588 -10.02519353 7.41864322 0 0 Z " fill="#FFFFFF" transform="translate(3269,1386)"/>
  <path d="M0 0 C2.18765334 0.00564607 4.3752989 0.00846306 6.56295776 0.0110817 C28.09808951 0.04854115 49.39996068 0.52623261 70.77853394 3.31805801 C72.1640578 3.49184146 73.54963885 3.66516945 74.93527222 3.83807755 C149.73298682 13.29528445 149.73298682 13.29528445 173.77853394 25.31805801 C187.34817021 84.9896637 157.57720194 157.81656852 126.77853394 207.31805801 C114.38862438 226.76774509 101.42640655 245.98170183 86.28634644 263.41180801 C83.90777663 266.16828143 81.61822758 268.97768745 79.34103394 271.81805801 C75.09016458 277.0422928 70.56779859 281.97167282 65.96603394 286.88446426 C63.49293694 289.52506662 61.08926973 292.22082519 58.68869019 294.92743301 C53.59694493 300.59659818 48.2549125 305.99302242 42.85787964 311.3690834 C41.2111199 313.01045598 39.56981298 314.65714621 37.92892456 316.30438614 C32.38310113 321.85370858 26.74780956 327.22254718 20.77853394 332.31805801 C19.00283173 333.93773618 17.23145086 335.56217519 15.46603394 337.19305801 C10.06376823 342.11430006 4.46547723 346.73204862 -1.22146606 351.31805801 C-2.40473156 352.29213667 -3.58696659 353.26746801 -4.76834106 354.24383926 C-52.62831675 393.68530829 -105.95894596 425.459142 -161.22146606 453.31805801 C-162.27608032 453.85076309 -163.33069458 454.38346817 -164.41726685 454.93231583 C-181.63951735 463.57202234 -199.2714532 471.20906506 -216.98147583 478.78387833 C-217.90525528 479.17899612 -218.82903473 479.57411392 -219.7808075 479.98120499 C-221.50529875 480.71784592 -223.23037507 481.45311962 -224.95619202 482.18664932 C-229.33756869 484.05498595 -233.69092783 485.97414938 -238.025177 487.94964981 C-239.00226624 488.39471375 -239.97935547 488.83977768 -240.98605347 489.2983284 C-241.72373962 489.63483917 -242.46142578 489.97134995 -243.22146606 490.31805801 C-242.53970684 490.12221619 -241.85794762 489.92637436 -241.15552902 489.72459793 C-224.57394534 484.96177371 -207.99069864 480.20478577 -191.4055748 475.45430374 C-183.38520831 473.1568752 -175.36541899 470.85746801 -167.34695435 468.55340958 C-160.35883427 466.54541999 -153.36966419 464.54113544 -146.37920308 462.54131031 C-142.67716249 461.48209332 -138.97567772 460.42101676 -135.27544403 459.35550308 C-131.79335558 458.35286945 -128.30988565 457.35519225 -124.82528877 456.36131287 C-122.93567282 455.82095779 -121.04756285 455.27534499 -119.15950012 454.72958755 C-118.03491898 454.4098497 -116.91033783 454.09011185 -115.75167847 453.76068497 C-114.7745779 453.4804599 -113.79747734 453.20023483 -112.79076767 452.9115181 C-110.22146606 452.31805801 -110.22146606 452.31805801 -106.22146606 452.31805801 C-108.22879158 459.46218181 -110.68275774 466.31886176 -113.46170044 473.19623184 C-113.87672318 474.23329269 -114.29174591 475.27035355 -114.71934509 476.33884048 C-116.08026131 479.73603029 -117.44750765 483.1306289 -118.81521606 486.52508926 C-119.7680719 488.89768086 -120.72066383 491.27037846 -121.67300415 493.64317703 C-123.66401884 498.6009752 -125.65808438 503.55753063 -127.65457153 508.51312637 C-129.95866646 514.23240897 -132.25649702 519.95417831 -134.55112028 525.6772669 C-136.76679889 531.20293762 -138.98728744 536.72666588 -141.20982361 542.24958229 C-142.15199825 544.59224463 -143.09291465 546.93541341 -144.032547 549.2790966 C-145.34465018 552.5500287 -146.66220469 555.81871183 -147.98123169 559.08685684 C-148.36781448 560.05369904 -148.75439728 561.02054123 -149.1526947 562.01668167 C-154.08734029 574.1996785 -154.08734029 574.1996785 -158.97317505 576.60712051 C-159.72450714 576.98570206 -160.47583923 577.3642836 -161.24993896 577.75433731 C-162.06425385 578.14661514 -162.87856873 578.53889297 -163.71755981 578.94305801 C-164.99558975 579.57884781 -164.99558975 579.57884781 -166.29943848 580.22748184 C-169.07915021 581.60530535 -171.86851211 582.9621397 -174.65896606 584.31805801 C-176.58669311 585.26646503 -178.51401859 586.21568867 -180.44094849 587.16571426 C-194.18992661 593.92412459 -208.00749048 600.52765935 -221.96560669 606.84393692 C-225.26909078 608.33962055 -228.56564077 609.84991317 -231.86209106 611.36102676 C-319.4357704 651.28367861 -410.96832331 683.27577343 -632.27615356 734.60321426 C-633.59008339 734.84305542 -633.59008339 734.84305542 -634.93055725 735.08774185 C-640.34888074 736.05497466 -645.74511759 736.76339072 -651.22146606 737.31805801 C-648.08315286 730.71517131 -644.38602394 724.61194547 -640.47146606 718.44305801 C-639.12167006 716.30035631 -637.77274113 714.15710819 -636.42459106 712.01337051 C-635.73043091 710.91025528 -635.03627075 709.80714005 -634.32107544 708.67059708 C-630.92045474 703.24067574 -627.57130755 697.77939928 -624.22146606 692.31805801 C-618.48748125 682.97846581 -612.7037213 673.67178645 -606.88357544 664.38568497 C-601.46047332 655.7234676 -596.10166108 647.02238677 -590.76248169 638.30829239 C-586.64820572 631.60180938 -582.46697432 624.94226109 -578.22146606 618.31805801 C-579.12050659 618.26794571 -580.01954712 618.2178334 -580.9458313 618.16620255 C-592.5586562 617.51402097 -592.5586562 617.51402097 -598.33816528 617.15423965 C-599.11540955 617.10591492 -599.89265381 617.05759018 -600.69345093 617.00780106 C-602.2718741 616.90963691 -603.85028388 616.81125704 -605.42868042 616.71266556 C-610.11269867 616.42639152 -614.79266055 616.21341914 -619.48318481 616.05633926 C-633.01909511 615.49487668 -642.20558245 613.21904282 -653.22146606 605.31805801 C-654.42725367 604.51604034 -655.63558857 603.71783891 -656.84646606 602.92352676 C-664.77572174 597.61287997 -671.81297067 591.47527545 -678.65115356 584.83710098 C-680.19135728 583.34718377 -681.75141116 581.8807891 -683.31521606 580.41571426 C-713.6628059 551.56118694 -728.80930577 510.1468369 -730.35037231 468.86493301 C-730.47064059 461.45640707 -730.0528065 454.18900775 -729.34646606 446.81805801 C-729.26807495 445.98137589 -729.18968384 445.14469376 -729.10891724 444.28265762 C-727.82319436 431.99617643 -727.82319436 431.99617643 -723.68240356 427.65790176 C-722.1548645 426.46874161 -722.1548645 426.46874161 -720.59646606 425.25555801 C-720.06029663 424.81985489 -719.5241272 424.38415176 -718.97171021 423.93524551 C-716.65475455 422.07418118 -714.36983484 420.39870855 -711.75662231 418.97821426 C-709.22344836 417.5771851 -707.98229235 416.65948519 -706.22146606 414.31805801 C-705.36519485 411.28530662 -704.93637735 408.21741787 -704.50662231 405.09930801 C-704.37904541 404.2565834 -704.25146851 403.4138588 -704.12002563 402.54559708 C-703.80789921 400.47160881 -703.51299356 398.39504187 -703.22146606 396.31805801 C-724.37951882 397.90165353 -745.52911091 399.57018937 -766.67068481 401.36102676 C-767.70179508 401.44833179 -768.73290535 401.53563683 -769.79526138 401.62558746 C-778.25761527 402.34264983 -786.71965665 403.06337311 -795.18167114 403.78442764 C-801.58874292 404.33026891 -807.99592517 404.8747765 -814.40326881 405.41741753 C-817.36375481 405.66869472 -820.32406752 405.92194692 -823.28437805 406.17528152 C-825.0780961 406.32738544 -826.87182224 406.47939387 -828.66555786 406.63129044 C-829.47822617 406.70138321 -830.29089447 406.77147598 -831.12818909 406.84369278 C-834.51152366 407.12836869 -837.8230689 407.31805801 -841.22146606 407.31805801 C-842.0395344 404.46538428 -842.85104402 401.61110616 -843.65896606 398.75555801 C-843.88906372 397.95569473 -844.11916138 397.15583145 -844.35623169 396.33172989 C-845.01247973 394.00157382 -845.62138762 391.66321566 -846.22146606 389.31805801 C-846.55791138 388.08958145 -846.89435669 386.86110489 -847.24099731 385.59540176 C-847.22146606 382.31805801 -847.22146606 382.31805801 -844.86209106 379.32587051 C-843.75190336 378.34187101 -842.62008185 377.38191558 -841.47146606 376.44305801 C-840.87527466 375.92549942 -840.27908325 375.40794083 -839.66482544 374.87469864 C-837.87091469 373.32914614 -836.05309882 371.81861143 -834.22146606 370.31805801 C-833.27787231 369.54204239 -832.33427856 368.76602676 -831.36209106 367.96649551 C-829.59098754 366.52550892 -827.81486601 365.0906696 -826.03396606 363.66180801 C-822.82296801 360.98597631 -819.77117469 358.17447525 -816.72146606 355.31805801 C-811.98280142 350.87973127 -807.10027281 346.72663552 -802.03396606 342.66180801 C-798.23982477 339.50002361 -794.65862842 336.13260437 -791.0552063 332.757267 C-787.72991807 329.66025717 -784.33426668 326.72184118 -780.78396606 323.88055801 C-776.40894634 320.37162662 -772.30125698 316.65961296 -768.22146606 312.81805801 C-763.30838491 308.19187211 -758.27024885 303.84535114 -752.99880981 299.62665176 C-749.79703807 296.96526344 -746.75911689 294.16343555 -743.72146606 291.31805801 C-738.98282463 286.87970895 -734.10027027 282.72663348 -729.03396606 278.66180801 C-725.82296801 275.98597631 -722.77117469 273.17447525 -719.72146606 270.31805801 C-715.82568372 266.66919145 -711.88812569 263.16107562 -707.72146606 259.81805801 C-702.31709824 255.47878458 -697.27191484 250.81409386 -692.20584106 246.09149551 C-687.58792846 241.78700288 -682.81385 237.67493396 -678.01052856 233.57977676 C-676.80984565 232.55522709 -675.60932985 231.53048155 -674.40896606 230.50555801 C-673.80278442 229.98824112 -673.19660278 229.47092422 -672.572052 228.93793106 C-668.83075786 225.73303572 -665.16031223 222.46596524 -661.53396606 219.13055801 C-658.06010297 215.94068957 -654.52236582 212.89756907 -650.84646606 209.94305801 C-646.05005896 206.07586938 -641.55105146 201.96825085 -637.05789185 197.75995255 C-633.71064822 194.64266465 -630.29150701 191.68239319 -626.72146606 188.81805801 C-621.31709824 184.47878458 -616.27191484 179.81409386 -611.20584106 175.09149551 C-606.58792846 170.78700288 -601.81385 166.67493396 -597.01052856 162.57977676 C-595.80984565 161.55522709 -594.60932985 160.53048155 -593.40896606 159.50555801 C-592.80278442 158.98824112 -592.19660278 158.47092422 -591.572052 157.93793106 C-587.83075786 154.73303572 -584.16031223 151.46596524 -580.53396606 148.13055801 C-577.06010297 144.94068957 -573.52236582 141.89756907 -569.84646606 138.94305801 C-565.05005896 135.07586938 -560.55105146 130.96825085 -556.05789185 126.75995255 C-551.86835039 122.85823271 -547.49982782 119.24488314 -543.03396606 115.66180801 C-539.23982477 112.50002361 -535.65862842 109.13260437 -532.0552063 105.757267 C-528.72991807 102.66025717 -525.33426668 99.72184118 -521.78396606 96.88055801 C-517.40894634 93.37162662 -513.30125698 89.65961296 -509.22146606 85.81805801 C-504.3158374 81.19888942 -499.28647961 76.85756885 -494.02224731 72.64618301 C-490.11915245 69.40176943 -486.41856274 65.95549167 -482.72317505 62.47797012 C-481.23337008 61.07977355 -479.72775029 59.6984856 -478.22146606 58.31805801 C-477.47638794 57.54075333 -476.73130981 56.76344864 -475.96365356 55.96258926 C-468.13748369 51.26911702 -455.05246964 55.07068876 -446.25637817 56.06219864 C-444.55529485 56.2498689 -442.85415696 56.43704512 -441.15296936 56.62376785 C-437.50668138 57.02499384 -433.86078685 57.42957123 -430.21516228 57.83678055 C-424.44508552 58.4811562 -418.67411893 59.11729897 -412.90299988 59.75226212 C-401.69492828 60.98650605 -390.48771753 62.22845329 -379.28064728 63.47175217 C-365.01204302 65.05464957 -350.74326237 66.63587857 -336.47329336 68.20643187 C-330.74168963 68.83755232 -325.01064615 69.4734793 -319.27999294 70.11317062 C-315.7104479 70.51065063 -312.14046398 70.90407357 -308.57035255 71.29643059 C-306.92106128 71.47853222 -305.27195384 71.66230818 -303.6230545 71.84792519 C-288.65759492 74.30703886 -288.65759492 74.30703886 -274.56912231 70.67743301 C-273.55946411 70.10750626 -272.54980591 69.5375795 -271.509552 68.95038223 C-270.44510864 68.32921524 -269.38066528 67.70804825 -268.28396606 67.06805801 C-265.96024229 65.76768293 -263.63450801 64.47236724 -261.30349731 63.18524551 C-260.71281464 62.85755173 -260.12213196 62.52985794 -259.5135498 62.19223404 C-203.08660132 31.08243681 -137.2095818 12.94525387 -73.59646606 4.50555801 C-72.48168884 4.35636917 -72.48168884 4.35636917 -71.34439087 4.20416641 C-65.97800639 3.49631119 -60.60530843 2.87736173 -55.22146606 2.31805801 C-54.32518494 2.22483261 -53.42890381 2.13160721 -52.50546265 2.03555679 C-35.01383347 0.28317885 -17.56236238 -0.04605999 0 0 Z M-327.22146606 152.31805801 C-328.29493286 152.94325333 -329.36839966 153.56844864 -330.47439575 154.21258926 C-362.35162281 172.80534637 -393.41545183 192.84227097 -423.11599731 214.76581192 C-425.41628844 216.46168981 -427.72476169 218.14605839 -430.03396606 219.82977676 C-443.86602833 229.9369285 -457.26517087 240.49500085 -470.53787231 251.32196426 C-473.47750014 253.71801854 -476.43676616 256.08745711 -479.40896606 258.44305801 C-483.79121719 261.93562393 -488.06534113 265.54667872 -492.33108521 269.17963028 C-495.79838314 272.12879692 -499.30459701 275.02078927 -502.84646606 277.88055801 C-507.6066666 281.75385073 -512.1495139 285.82565794 -516.66677856 289.97821426 C-518.84844421 291.9764065 -521.05157915 293.9395469 -523.28396606 295.88055801 C-530.96742106 302.56656652 -538.48373857 309.44057259 -545.9758606 316.33954239 C-547.91761098 318.12576094 -549.86805651 319.89941453 -551.83010864 321.663517 C-562.53620807 331.36946727 -572.69386608 341.63796478 -582.89822388 351.86444473 C-585.57402505 354.54597896 -588.25434372 357.22294597 -590.93598747 359.89863586 C-593.02948997 361.9885026 -595.12057786 364.08077238 -597.21097183 366.17374802 C-598.19807038 367.1615056 -599.18588981 368.14854339 -600.1744957 369.13479233 C-605.23704205 374.18789629 -610.19476448 379.27324861 -614.84524536 384.71059036 C-616.619028 386.78242245 -618.48516794 388.76238654 -620.34646606 390.75555801 C-626.79611961 397.8758861 -632.46468099 405.63610127 -638.22146606 413.31805801 C-637.89146606 413.97805801 -637.56146606 414.63805801 -637.22146606 415.31805801 C-621.21243668 403.80822268 -605.26174986 392.23062006 -589.63088989 380.210392 C-582.04713341 374.39128179 -574.34228598 368.73979394 -566.63308716 363.08856583 C-564.22830271 361.32307719 -561.8276882 359.5520764 -559.42849731 357.77899551 C-521.89424768 330.04113127 -483.44743644 303.60654156 -444.22146606 278.31805801 C-443.37132935 277.76923965 -442.52119263 277.2204213 -441.64529419 276.65497208 C-409.83752488 256.15583407 -377.2550543 236.76874069 -344.22146606 218.31805801 C-342.71617438 217.47315441 -341.21096145 216.62811048 -339.70584106 215.78290176 C-299.06400617 193.01961058 -257.5736031 171.43301572 -215.14089966 152.1892128 C-213.14985454 151.28555638 -211.16023268 150.37881419 -209.17068481 149.47186661 C-125.18024934 111.24313758 -37.29541063 80.44800753 55.30953979 58.01581192 C56.15782349 57.81391251 57.00610718 57.61201309 57.88009644 57.40399551 C58.59504272 57.23947891 59.30998901 57.07496231 60.04660034 56.90546036 C62.00943086 56.38217806 62.00943086 56.38217806 63.77853394 54.31805801 C-11.68482574 51.56268944 -86.36443916 58.70400119 -327.22146606 152.31805801 Z " fill="#FFFFFF" transform="translate(4285.221466064453,556.681941986084)"/>
</svg>